<svg xmlns="http://www.w3.org/2000/svg" xmlns:xlink="http://www.w3.org/1999/xlink" width="500" zoomAndPan="magnify" viewBox="0 0 375 374.999991" height="500" preserveAspectRatio="xMidYMid meet" version="1.2"><defs><clipPath id="27eafe1abf"><path d="M 14.332031 103 L 190.582031 103 L 190.582031 270.207031 L 14.332031 270.207031 Z M 14.332031 103 "/></clipPath><clipPath id="e3829703e8"><path d="M 319 102.207031 L 360.757812 102.207031 L 360.757812 160 L 319 160 Z M 319 102.207031 "/></clipPath><clipPath id="8f5c36e208"><path d="M 190.507812 207 L 237 207 L 237 272.457031 L 190.507812 272.457031 Z M 190.507812 207 "/></clipPath><clipPath id="6307bfac0e"><path d="M 215 157 L 337 157 L 337 272.457031 L 215 272.457031 Z M 215 157 "/></clipPath></defs><g id="4ff2799029"><g clip-rule="nonzero" clip-path="url(#27eafe1abf)"><path style=" stroke:none;fill-rule:nonzero;fill:#efefef;fill-opacity:1;" d="M 162.804688 198.941406 C 162.804688 202.074219 160.800781 204.855469 157.828125 205.847656 C 143.65625 210.558594 124.046875 213.472656 102.402344 213.472656 C 80.765625 213.472656 61.160156 210.558594 46.976562 205.847656 C 44.015625 204.855469 42.003906 202.074219 42.003906 198.941406 L 42.003906 138.433594 C 42.003906 134.765625 44.972656 131.796875 48.648438 131.796875 L 156.167969 131.796875 C 159.839844 131.796875 162.804688 134.765625 162.804688 138.433594 Z M 162.804688 228.097656 C 162.804688 235.488281 155.8125 241.484375 147.191406 241.484375 L 127.699219 241.484375 C 123.148438 241.484375 121.6875 236.226562 125.761719 234.472656 L 156.765625 221.132812 C 159.535156 219.941406 162.804688 221.667969 162.804688 224.332031 Z M 77.105469 241.484375 L 57.613281 241.484375 C 48.996094 241.484375 42.003906 235.488281 42.003906 228.097656 L 42.003906 224.332031 C 42.003906 221.667969 45.273438 219.941406 48.042969 221.132812 L 79.046875 234.472656 C 83.117188 236.226562 81.660156 241.484375 77.105469 241.484375 Z M 70.425781 113.527344 C 70.425781 112.433594 71.316406 111.550781 72.402344 111.550781 L 132.414062 111.550781 C 133.5 111.550781 134.378906 112.433594 134.378906 113.527344 L 134.378906 123.078125 C 134.378906 124.171875 133.5 125.054688 132.414062 125.054688 L 72.402344 125.054688 C 71.316406 125.054688 70.425781 124.171875 70.425781 123.078125 Z M 187.347656 145.296875 L 185.488281 145.296875 L 185.488281 143.632812 C 185.488281 140.503906 182.945312 137.960938 179.816406 137.960938 L 172.808594 137.960938 L 172.808594 121.742188 C 172.808594 119.609375 172.339844 117.585938 171.515625 115.757812 C 169.597656 111.496094 165.554688 108.597656 160.972656 107.6875 C 160.121094 107.515625 159.265625 107.355469 158.421875 107.195312 C 131.359375 102.214844 102.402344 103.28125 102.402344 103.28125 C 102.402344 103.28125 73.445312 102.214844 46.394531 107.195312 C 45.542969 107.355469 44.695312 107.515625 43.84375 107.6875 C 39.261719 108.597656 35.214844 111.496094 33.289062 115.757812 C 32.472656 117.585938 32.003906 119.609375 32.003906 121.742188 L 32.003906 137.960938 L 24.996094 137.960938 C 21.871094 137.960938 19.328125 140.503906 19.328125 143.632812 L 19.328125 145.296875 L 17.464844 145.296875 C 15.746094 145.296875 14.351562 146.691406 14.351562 148.410156 L 14.351562 172.75 C 14.351562 174.46875 15.746094 175.863281 17.464844 175.863281 L 25.453125 175.863281 C 27.171875 175.863281 28.5625 174.46875 28.5625 172.75 L 28.5625 148.410156 C 28.5625 146.691406 27.171875 145.296875 25.453125 145.296875 L 23.589844 145.296875 L 23.589844 143.632812 C 23.589844 142.855469 24.222656 142.226562 24.996094 142.226562 L 32.003906 142.226562 L 32.003906 236.519531 C 32.003906 244.140625 36.535156 250.695312 43.046875 253.660156 L 43.046875 266.292969 C 43.046875 268.347656 44.710938 270.015625 46.769531 270.015625 L 66.140625 270.015625 C 68.199219 270.015625 69.867188 268.347656 69.867188 266.292969 L 69.867188 255.347656 L 134.949219 255.347656 L 134.949219 266.292969 C 134.949219 268.347656 136.617188 270.015625 138.675781 270.015625 L 158.046875 270.015625 C 160.101562 270.015625 161.769531 268.347656 161.769531 266.292969 L 161.769531 253.660156 C 168.28125 250.695312 172.808594 244.140625 172.808594 236.519531 L 172.808594 142.226562 L 179.816406 142.226562 C 180.59375 142.226562 181.222656 142.855469 181.222656 143.632812 L 181.222656 145.296875 L 179.363281 145.296875 C 177.644531 145.296875 176.25 146.691406 176.25 148.410156 L 176.25 172.75 C 176.25 174.46875 177.644531 175.863281 179.363281 175.863281 L 187.347656 175.863281 C 189.070312 175.863281 190.460938 174.46875 190.460938 172.75 L 190.460938 148.410156 C 190.460938 146.691406 189.070312 145.296875 187.347656 145.296875 "/></g><g clip-rule="nonzero" clip-path="url(#e3829703e8)"><path style=" stroke:none;fill-rule:nonzero;fill:#efefef;fill-opacity:1;" d="M 351.871094 110.648438 C 348.84375 107.617188 344.65625 105.742188 340.035156 105.742188 C 335.410156 105.742188 331.222656 107.617188 328.195312 110.648438 C 325.164062 113.675781 323.289062 117.863281 323.289062 122.488281 C 323.289062 131.167969 334.894531 147.984375 340.011719 155.136719 L 340.019531 155.121094 C 345.421875 147.425781 356.777344 131.242188 356.777344 122.488281 C 356.777344 117.863281 354.902344 113.675781 351.871094 110.648438 Z M 340.035156 102.207031 C 345.632812 102.207031 350.703125 104.476562 354.371094 108.144531 C 358.042969 111.816406 360.3125 116.886719 360.3125 122.488281 C 360.3125 132.347656 348.515625 149.160156 342.910156 157.152344 C 342.273438 158.058594 341.703125 158.871094 341.484375 159.1875 L 340.035156 158.1875 L 341.488281 159.191406 C 340.933594 159.996094 339.832031 160.195312 339.027344 159.640625 C 338.8125 159.492188 338.640625 159.304688 338.515625 159.089844 L 338.390625 158.917969 C 334.125 153.007812 319.753906 133.089844 319.753906 122.488281 C 319.753906 116.886719 322.023438 111.816406 325.695312 108.144531 C 329.363281 104.476562 334.433594 102.207031 340.035156 102.207031 "/></g><path style=" stroke:none;fill-rule:nonzero;fill:#efefef;fill-opacity:1;" d="M 343.457031 117.738281 C 342.582031 116.863281 341.371094 116.320312 340.03125 116.320312 C 338.695312 116.320312 337.484375 116.863281 336.609375 117.738281 C 335.734375 118.617188 335.191406 119.828125 335.191406 121.164062 C 335.191406 122.5 335.734375 123.710938 336.609375 124.589844 C 337.484375 125.464844 338.695312 126.007812 340.03125 126.007812 C 341.371094 126.007812 342.582031 125.464844 343.457031 124.589844 C 344.332031 123.710938 344.875 122.5 344.875 121.164062 C 344.875 119.828125 344.332031 118.617188 343.457031 117.738281 Z M 340.03125 112.785156 C 342.347656 112.785156 344.441406 113.722656 345.957031 115.238281 C 347.472656 116.757812 348.414062 118.851562 348.414062 121.164062 C 348.414062 123.476562 347.472656 125.574219 345.957031 127.089844 C 344.441406 128.605469 342.347656 129.542969 340.03125 129.542969 C 337.71875 129.542969 335.625 128.605469 334.109375 127.089844 C 332.589844 125.574219 331.652344 123.476562 331.652344 121.164062 C 331.652344 118.851562 332.589844 116.757812 334.109375 115.238281 C 335.625 113.722656 337.71875 112.785156 340.03125 112.785156 "/><g clip-rule="nonzero" clip-path="url(#8f5c36e208)"><path style=" stroke:none;fill-rule:nonzero;fill:#efefef;fill-opacity:1;" d="M 226.875 216.398438 C 223.398438 212.917969 218.59375 210.769531 213.289062 210.769531 C 207.984375 210.769531 203.179688 212.917969 199.703125 216.398438 C 196.226562 219.871094 194.074219 224.675781 194.074219 229.980469 C 194.074219 240.003906 207.558594 259.433594 213.265625 267.394531 L 213.464844 267.105469 C 219.601562 258.363281 232.5 239.980469 232.5 229.980469 C 232.5 224.675781 230.351562 219.871094 226.875 216.398438 Z M 213.289062 207.230469 C 219.570312 207.230469 225.257812 209.78125 229.375 213.894531 C 233.492188 218.011719 236.035156 223.699219 236.035156 229.980469 C 236.035156 241.085938 222.695312 260.097656 216.355469 269.136719 C 215.648438 270.144531 215.019531 271.042969 214.738281 271.445312 L 213.289062 270.445312 L 214.742188 271.449219 C 214.1875 272.253906 213.085938 272.453125 212.28125 271.898438 C 212.066406 271.75 211.894531 271.5625 211.769531 271.347656 L 211.617188 271.136719 C 206.792969 264.453125 190.539062 241.925781 190.539062 229.980469 C 190.539062 223.699219 193.085938 218.011719 197.203125 213.894531 C 201.320312 209.78125 207.007812 207.230469 213.289062 207.230469 "/></g><path style=" stroke:none;fill-rule:nonzero;fill:#efefef;fill-opacity:1;" d="M 217.335938 224.4375 C 216.300781 223.398438 214.867188 222.757812 213.289062 222.757812 C 211.707031 222.757812 210.277344 223.398438 209.238281 224.4375 C 208.203125 225.472656 207.5625 226.902344 207.5625 228.484375 C 207.5625 230.0625 208.203125 231.496094 209.238281 232.53125 C 210.277344 233.566406 211.707031 234.207031 213.289062 234.207031 C 214.867188 234.207031 216.300781 233.566406 217.335938 232.53125 C 218.371094 231.496094 219.011719 230.0625 219.011719 228.484375 C 219.011719 226.902344 218.371094 225.472656 217.335938 224.4375 Z M 213.289062 219.222656 C 215.84375 219.222656 218.160156 220.257812 219.835938 221.933594 C 221.511719 223.609375 222.550781 225.925781 222.550781 228.484375 C 222.550781 231.039062 221.511719 233.355469 219.835938 235.03125 C 218.160156 236.707031 215.84375 237.746094 213.289062 237.746094 C 210.730469 237.746094 208.414062 236.707031 206.738281 235.03125 C 205.0625 233.355469 204.027344 231.039062 204.027344 228.484375 C 204.027344 225.925781 205.0625 223.609375 206.738281 221.933594 C 208.414062 220.257812 210.730469 219.222656 213.289062 219.222656 "/><g clip-rule="nonzero" clip-path="url(#6307bfac0e)"><path style=" stroke:none;fill-rule:nonzero;fill:#efefef;fill-opacity:1;" d="M 317.804688 159.746094 C 316.753906 159.550781 315.769531 160.335938 315.71875 161.402344 C 315.679688 162.285156 316.296875 163.0625 317.167969 163.222656 L 317.191406 163.226562 L 317.292969 163.246094 L 317.394531 163.261719 L 317.5 163.28125 L 317.601562 163.300781 L 318.210938 163.394531 L 318.414062 163.417969 L 318.515625 163.433594 L 318.617188 163.445312 L 318.714844 163.460938 L 318.917969 163.484375 L 319.015625 163.496094 L 319.117188 163.503906 L 319.21875 163.515625 L 319.316406 163.523438 L 319.417969 163.535156 L 319.515625 163.542969 L 319.617188 163.554688 L 319.714844 163.5625 L 319.816406 163.570312 L 319.914062 163.578125 L 320.011719 163.582031 L 320.113281 163.589844 L 320.207031 163.597656 L 320.308594 163.601562 L 320.40625 163.609375 L 320.601562 163.617188 L 320.796875 163.628906 L 320.890625 163.632812 L 320.941406 163.632812 C 322.449219 163.683594 323.328125 161.929688 322.375 160.753906 C 322.046875 160.351562 321.582031 160.113281 321.058594 160.097656 L 321.027344 160.097656 L 320.941406 160.09375 L 320.859375 160.089844 L 320.773438 160.085938 L 320.691406 160.082031 L 320.601562 160.078125 L 320.519531 160.074219 L 320.433594 160.066406 L 320.347656 160.0625 L 320.261719 160.054688 L 320.175781 160.050781 L 320.089844 160.042969 L 320.007812 160.035156 L 319.917969 160.027344 L 319.574219 159.996094 L 319.402344 159.976562 L 319.316406 159.96875 L 319.226562 159.957031 L 319.140625 159.949219 L 318.96875 159.925781 L 318.878906 159.914062 L 318.621094 159.878906 L 318.53125 159.867188 L 318.441406 159.851562 L 318.355469 159.839844 L 318.179688 159.808594 L 318.089844 159.796875 L 318.003906 159.78125 L 317.914062 159.765625 L 317.828125 159.75 Z M 303.472656 157.953125 C 302.761719 157.96875 302.160156 158.375 301.871094 159.027344 C 301.375 160.207031 302.242188 161.503906 303.523438 161.488281 L 303.566406 161.488281 L 303.6875 161.484375 L 304.777344 161.484375 L 304.898438 161.488281 L 305.140625 161.488281 L 305.382812 161.496094 L 305.5 161.496094 L 305.863281 161.507812 L 305.980469 161.511719 L 306.101562 161.515625 L 306.21875 161.519531 L 306.339844 161.523438 L 306.457031 161.53125 L 306.578125 161.535156 L 306.695312 161.539062 L 306.8125 161.546875 L 306.933594 161.550781 L 306.9375 161.550781 C 308.542969 161.625 309.414062 159.726562 308.308594 158.558594 C 307.988281 158.234375 307.585938 158.046875 307.128906 158.019531 L 307.117188 158.019531 L 306.988281 158.011719 L 306.863281 158.007812 L 306.738281 158 L 306.609375 157.996094 L 306.355469 157.984375 L 306.226562 157.980469 L 306.101562 157.976562 L 305.585938 157.960938 L 305.460938 157.960938 L 305.203125 157.953125 L 305.074219 157.953125 L 304.941406 157.949219 L 304.683594 157.949219 L 304.554688 157.945312 L 304.035156 157.945312 L 303.90625 157.949219 L 303.644531 157.949219 L 303.515625 157.953125 Z M 288.90625 161.191406 C 287.5 162.054688 287.917969 164.1875 289.554688 164.453125 C 289.972656 164.515625 290.378906 164.433594 290.738281 164.21875 L 290.75 164.210938 L 290.898438 164.125 L 290.972656 164.078125 L 291.046875 164.039062 L 291.121094 163.996094 L 291.277344 163.910156 L 291.355469 163.871094 L 291.433594 163.828125 L 291.515625 163.789062 L 291.59375 163.746094 L 291.757812 163.667969 L 291.84375 163.628906 L 292.007812 163.550781 L 292.097656 163.511719 L 292.183594 163.472656 L 292.269531 163.4375 L 292.355469 163.398438 L 292.445312 163.363281 L 292.53125 163.328125 L 292.625 163.289062 L 292.710938 163.253906 L 292.804688 163.21875 L 292.894531 163.183594 L 292.988281 163.148438 L 293.171875 163.078125 L 293.269531 163.046875 L 293.363281 163.011719 L 293.457031 162.980469 L 293.554688 162.945312 L 293.59375 162.933594 C 295.183594 162.398438 295.21875 160.171875 293.640625 159.589844 C 293.265625 159.453125 292.863281 159.453125 292.484375 159.574219 L 292.425781 159.59375 L 292.199219 159.671875 L 292.082031 159.710938 L 291.972656 159.753906 L 291.859375 159.792969 L 291.746094 159.835938 L 291.636719 159.878906 L 291.523438 159.921875 L 291.414062 159.960938 L 291.304688 160.007812 L 291.195312 160.050781 L 291.085938 160.097656 L 290.976562 160.140625 L 290.871094 160.1875 L 290.761719 160.234375 L 290.65625 160.28125 L 290.546875 160.332031 L 290.335938 160.425781 L 290.230469 160.476562 L 290.128906 160.527344 L 290.023438 160.578125 L 289.921875 160.628906 L 289.816406 160.683594 L 289.714844 160.734375 L 289.511719 160.84375 L 289.414062 160.898438 L 289.3125 160.953125 L 289.214844 161.011719 L 289.113281 161.066406 L 289.015625 161.125 L 288.921875 161.183594 Z M 283.230469 175.070312 C 283.078125 176.722656 285.054688 177.660156 286.238281 176.496094 C 286.53125 176.203125 286.707031 175.832031 286.75 175.417969 L 286.75 175.414062 L 286.757812 175.3125 L 286.769531 175.214844 L 286.785156 175.011719 L 286.792969 174.914062 L 286.804688 174.8125 L 286.820312 174.617188 L 286.824219 174.515625 L 286.832031 174.421875 L 286.839844 174.320312 L 286.847656 174.222656 L 286.851562 174.125 L 286.859375 174.03125 L 286.863281 173.933594 L 286.878906 173.738281 L 286.886719 173.550781 L 286.894531 173.453125 L 286.902344 173.265625 L 286.910156 173.171875 L 286.917969 172.984375 L 286.925781 172.890625 L 286.933594 172.703125 L 286.941406 172.613281 L 286.945312 172.523438 L 286.949219 172.429688 L 286.953125 172.339844 L 286.960938 172.25 L 286.964844 172.160156 L 286.972656 172.070312 L 286.980469 171.890625 L 286.984375 171.828125 C 287.019531 171.207031 286.75 170.632812 286.242188 170.269531 C 285.109375 169.472656 283.550781 170.21875 283.457031 171.601562 L 283.453125 171.667969 L 283.445312 171.761719 L 283.441406 171.855469 L 283.433594 171.949219 L 283.429688 172.042969 L 283.421875 172.136719 L 283.417969 172.234375 L 283.414062 172.324219 L 283.40625 172.417969 L 283.394531 172.699219 L 283.382812 172.882812 L 283.378906 172.976562 L 283.367188 173.160156 L 283.359375 173.347656 L 283.351562 173.441406 L 283.34375 173.53125 L 283.335938 173.710938 L 283.328125 173.804688 L 283.324219 173.898438 L 283.316406 173.988281 L 283.3125 174.078125 L 283.304688 174.167969 L 283.296875 174.261719 L 283.292969 174.351562 Z M 276.753906 185.1875 C 276.1875 185.546875 275.878906 186.175781 275.933594 186.84375 C 276.0625 188.164062 277.515625 188.882812 278.640625 188.179688 L 278.660156 188.167969 L 278.8125 188.070312 L 278.960938 187.976562 L 279.105469 187.878906 L 279.253906 187.78125 L 279.398438 187.683594 L 279.539062 187.589844 L 279.679688 187.492188 L 280.089844 187.199219 L 280.222656 187.097656 L 280.355469 187 L 280.484375 186.898438 L 280.613281 186.800781 L 280.742188 186.699219 L 280.867188 186.601562 L 280.988281 186.5 L 281.113281 186.398438 L 281.230469 186.300781 L 281.351562 186.195312 L 281.46875 186.09375 L 281.695312 185.890625 L 281.722656 185.867188 C 282.820312 184.855469 282.246094 183.015625 280.757812 182.8125 C 280.226562 182.75 279.726562 182.902344 279.328125 183.265625 L 279.324219 183.269531 L 279.234375 183.351562 L 279.140625 183.433594 L 278.847656 183.679688 L 278.746094 183.761719 L 278.644531 183.847656 L 278.542969 183.929688 L 278.4375 184.011719 L 278.328125 184.097656 L 278.109375 184.261719 L 277.996094 184.34375 L 277.882812 184.429688 L 277.53125 184.675781 L 277.410156 184.761719 L 277.035156 185.007812 L 276.90625 185.09375 L 276.773438 185.175781 Z M 264.53125 185.121094 C 263.136719 184.722656 261.882812 186.09375 262.398438 187.453125 C 262.605469 187.976562 263.019531 188.367188 263.566406 188.523438 L 263.71875 188.566406 L 263.921875 188.621094 L 264.121094 188.679688 L 264.324219 188.734375 L 264.921875 188.898438 L 265.71875 189.101562 L 265.917969 189.148438 L 266.113281 189.199219 L 266.511719 189.292969 L 266.707031 189.339844 L 267.097656 189.425781 C 268.675781 189.757812 269.839844 188.015625 268.921875 186.683594 C 268.660156 186.316406 268.292969 186.070312 267.851562 185.972656 L 267.675781 185.933594 L 267.496094 185.890625 L 266.761719 185.71875 L 266.578125 185.671875 L 266.390625 185.625 L 266.207031 185.578125 L 266.015625 185.527344 L 265.640625 185.425781 L 265.453125 185.378906 L 265.070312 185.269531 L 264.878906 185.21875 L 264.6875 185.164062 Z M 254.347656 182.054688 L 253.429688 185.46875 Z M 250.746094 181.246094 C 250.070312 181.128906 249.386719 181.40625 248.992188 181.972656 C 248.253906 183.042969 248.855469 184.492188 250.132812 184.730469 L 250.230469 184.746094 L 250.402344 184.777344 L 250.570312 184.808594 L 250.742188 184.839844 L 251.085938 184.910156 L 251.261719 184.949219 L 251.4375 184.984375 L 251.617188 185.023438 L 251.792969 185.066406 L 251.972656 185.105469 L 252.332031 185.191406 L 252.515625 185.234375 L 252.695312 185.28125 L 252.878906 185.328125 L 253.066406 185.375 L 253.25 185.421875 L 253.429688 185.46875 L 253.4375 185.472656 C 255.058594 185.886719 256.296875 184.066406 255.304688 182.703125 C 255.066406 182.382812 254.738281 182.160156 254.347656 182.054688 L 254.34375 182.050781 L 254.144531 182 L 253.949219 181.949219 L 253.75 181.898438 L 253.554688 181.847656 L 252.773438 181.660156 L 252.578125 181.617188 L 252.382812 181.570312 L 252.191406 181.527344 L 251.996094 181.488281 L 251.804688 181.449219 L 251.609375 181.40625 L 251.421875 181.371094 L 251.230469 181.332031 L 250.847656 181.261719 Z M 239.46875 185 L 242.570312 186.699219 Z M 238.304688 189.007812 C 238.214844 189.707031 238.539062 190.367188 239.132812 190.738281 C 240.222656 191.410156 241.652344 190.730469 241.8125 189.457031 L 241.832031 189.316406 L 241.855469 189.140625 L 241.878906 188.96875 L 241.90625 188.800781 L 241.96875 188.480469 L 242.003906 188.324219 L 242.039062 188.175781 L 242.074219 188.03125 L 242.113281 187.886719 L 242.152344 187.75 L 242.195312 187.617188 L 242.238281 187.488281 L 242.28125 187.363281 L 242.328125 187.242188 L 242.375 187.125 L 242.421875 187.011719 L 242.472656 186.902344 L 242.519531 186.796875 L 242.570312 186.699219 L 242.574219 186.695312 C 242.878906 186.128906 242.859375 185.445312 242.511719 184.898438 C 241.789062 183.765625 240.109375 183.824219 239.46875 185 L 239.433594 185.070312 L 239.34375 185.242188 L 239.261719 185.417969 L 239.179688 185.597656 L 239.105469 185.777344 L 239.03125 185.960938 L 238.957031 186.148438 L 238.890625 186.339844 L 238.765625 186.730469 L 238.707031 186.933594 L 238.652344 187.132812 L 238.601562 187.339844 L 238.550781 187.550781 L 238.507812 187.761719 L 238.460938 187.976562 L 238.421875 188.195312 L 238.351562 188.640625 L 238.320312 188.867188 Z M 239.714844 203.605469 C 240.023438 205.160156 242.050781 205.5625 242.933594 204.230469 C 243.1875 203.835938 243.273438 203.394531 243.1875 202.929688 L 243.179688 202.902344 L 243.039062 202.152344 L 243.003906 201.96875 L 242.96875 201.78125 L 242.902344 201.410156 L 242.871094 201.226562 L 242.835938 201.042969 L 242.710938 200.308594 L 242.679688 200.128906 L 242.652344 199.945312 L 242.621094 199.765625 L 242.59375 199.582031 L 242.582031 199.507812 C 242.316406 197.898438 240.214844 197.464844 239.335938 198.84375 C 239.105469 199.214844 239.023438 199.628906 239.085938 200.0625 L 239.101562 200.144531 L 239.128906 200.332031 L 239.253906 201.082031 L 239.289062 201.273438 L 239.320312 201.464844 L 239.355469 201.652344 L 239.386719 201.84375 L 239.457031 202.226562 L 239.488281 202.417969 L 239.527344 202.609375 L 239.597656 202.992188 L 239.632812 203.1875 L 239.667969 203.378906 L 239.707031 203.574219 Z M 243.457031 217.511719 C 244.027344 219.070312 246.210938 219.074219 246.785156 217.519531 C 246.925781 217.121094 246.925781 216.722656 246.789062 216.324219 L 246.769531 216.277344 L 246.636719 215.902344 L 246.574219 215.714844 L 246.507812 215.523438 L 246.441406 215.335938 L 246.378906 215.148438 L 246.316406 214.957031 L 246.25 214.765625 L 246.1875 214.578125 L 246.0625 214.195312 L 246.003906 214.007812 L 245.878906 213.625 L 245.761719 213.242188 L 245.699219 213.050781 L 245.699219 213.042969 C 245.511719 212.445312 245.039062 211.996094 244.429688 211.84375 C 243.089844 211.519531 241.921875 212.757812 242.316406 214.078125 L 242.320312 214.09375 L 242.632812 215.089844 L 242.765625 215.488281 L 242.828125 215.6875 L 242.894531 215.882812 L 243.027344 216.28125 L 243.09375 216.476562 L 243.164062 216.675781 L 243.230469 216.871094 L 243.300781 217.070312 L 243.371094 217.265625 L 243.4375 217.464844 Z M 249.925781 230.570312 C 250.796875 231.828125 252.761719 231.449219 253.101562 229.957031 C 253.210938 229.46875 253.113281 228.960938 252.828125 228.550781 L 252.777344 228.476562 L 252.675781 228.332031 L 252.480469 228.042969 L 252.382812 227.894531 L 252.285156 227.75 L 252.1875 227.601562 L 252.089844 227.449219 L 251.992188 227.300781 L 251.894531 227.148438 L 251.800781 226.996094 L 251.703125 226.84375 L 251.609375 226.691406 L 251.234375 226.066406 L 251.144531 225.910156 L 251.050781 225.75 L 251.019531 225.695312 C 250.261719 224.390625 248.34375 224.554688 247.820312 225.976562 C 247.644531 226.472656 247.691406 226.992188 247.949219 227.453125 L 247.988281 227.519531 L 248.089844 227.691406 L 248.1875 227.863281 L 248.289062 228.03125 L 248.390625 228.203125 L 248.59375 228.539062 L 248.699219 228.707031 L 248.800781 228.871094 L 248.90625 229.039062 L 249.328125 229.695312 L 249.4375 229.859375 L 249.765625 230.339844 L 249.875 230.496094 Z M 261.277344 240.113281 C 262.71875 240.832031 264.296875 239.40625 263.722656 237.894531 C 263.5625 237.480469 263.261719 237.15625 262.867188 236.953125 L 262.78125 236.910156 L 262.652344 236.84375 L 262.386719 236.710938 L 262.25 236.640625 L 262.117188 236.574219 L 261.851562 236.433594 L 261.578125 236.292969 L 261.445312 236.222656 L 261.171875 236.074219 L 261.035156 236.003906 L 260.894531 235.929688 L 260.621094 235.78125 L 260.480469 235.703125 L 260.339844 235.628906 L 260.058594 235.472656 L 259.933594 235.402344 L 259.832031 235.34375 C 258.472656 234.558594 256.835938 235.8125 257.238281 237.332031 C 257.359375 237.785156 257.652344 238.167969 258.0625 238.40625 L 258.1875 238.480469 L 258.34375 238.566406 L 258.492188 238.648438 L 258.640625 238.726562 L 258.785156 238.808594 L 259.507812 239.199219 L 259.652344 239.273438 L 259.792969 239.347656 L 259.9375 239.425781 L 260.21875 239.574219 L 260.5 239.71875 L 260.640625 239.789062 L 260.777344 239.859375 L 260.917969 239.929688 L 261.054688 240 L 261.195312 240.070312 Z M 274.058594 245.992188 C 275.535156 246.796875 277.191406 245.3125 276.550781 243.761719 C 276.390625 243.386719 276.128906 243.101562 275.777344 242.898438 L 275.699219 242.855469 L 275.609375 242.804688 L 275.519531 242.757812 L 275.429688 242.707031 L 275.335938 242.65625 L 275.242188 242.609375 L 275.152344 242.558594 L 274.96875 242.464844 L 274.875 242.414062 L 274.6875 242.320312 L 274.597656 242.273438 L 274.503906 242.222656 L 274.316406 242.128906 L 274.21875 242.085938 L 274.125 242.035156 L 274.027344 241.992188 L 273.839844 241.898438 L 273.742188 241.851562 L 273.644531 241.808594 L 273.546875 241.761719 L 273.453125 241.714844 L 273.351562 241.667969 L 273.257812 241.625 L 273.15625 241.578125 L 273.058594 241.535156 L 272.863281 241.441406 L 272.761719 241.398438 L 272.664062 241.351562 L 272.5625 241.308594 L 272.472656 241.265625 C 271.152344 240.671875 269.714844 241.839844 270.019531 243.253906 C 270.136719 243.800781 270.515625 244.261719 271.023438 244.492188 L 271.109375 244.53125 L 271.207031 244.574219 L 271.488281 244.703125 L 271.578125 244.746094 L 271.859375 244.875 L 272.039062 244.960938 L 272.128906 245 L 272.308594 245.085938 L 272.394531 245.128906 L 272.484375 245.171875 L 272.570312 245.214844 L 272.660156 245.257812 L 272.742188 245.300781 L 273.085938 245.472656 L 273.25 245.558594 L 273.332031 245.597656 L 273.417969 245.644531 L 273.5 245.6875 L 273.660156 245.773438 L 273.742188 245.816406 L 273.898438 245.902344 L 273.980469 245.945312 Z M 280.929688 255.597656 C 280.9375 256.171875 281.214844 256.691406 281.683594 257.023438 C 282.859375 257.847656 284.484375 256.992188 284.46875 255.554688 L 284.46875 255.519531 L 284.464844 255.386719 L 284.460938 255.257812 L 284.445312 255 L 284.433594 254.871094 L 284.421875 254.738281 L 284.390625 254.480469 L 284.371094 254.347656 L 284.351562 254.21875 L 284.304688 253.953125 L 284.277344 253.824219 L 284.25 253.691406 L 284.21875 253.558594 L 284.183594 253.429688 L 284.152344 253.296875 L 284.035156 252.898438 L 283.992188 252.769531 L 283.949219 252.636719 L 283.855469 252.371094 L 283.808594 252.25 L 283.765625 252.128906 L 283.71875 252.007812 L 283.53125 251.539062 L 283.507812 251.476562 C 282.898438 250.027344 280.839844 250.035156 280.238281 251.488281 C 280.0625 251.929688 280.058594 252.402344 280.242188 252.84375 L 280.261719 252.886719 L 280.300781 252.984375 L 280.378906 253.183594 L 280.421875 253.285156 L 280.460938 253.386719 L 280.496094 253.488281 L 280.535156 253.59375 L 280.570312 253.683594 L 280.601562 253.773438 L 280.628906 253.863281 L 280.660156 253.953125 L 280.6875 254.039062 L 280.710938 254.128906 L 280.757812 254.300781 L 280.777344 254.382812 L 280.796875 254.46875 L 280.816406 254.550781 L 280.847656 254.714844 L 280.863281 254.792969 L 280.875 254.875 L 280.894531 255.03125 L 280.902344 255.109375 L 280.914062 255.183594 L 280.921875 255.335938 L 280.925781 255.414062 L 280.929688 255.484375 Z M 272.445312 263.058594 C 271.117188 263.558594 270.875 265.300781 272.011719 266.144531 C 272.503906 266.492188 273.101562 266.582031 273.667969 266.375 L 273.742188 266.351562 L 273.890625 266.292969 L 274.1875 266.183594 L 274.332031 266.125 L 274.480469 266.070312 L 275.058594 265.835938 L 275.199219 265.777344 L 275.34375 265.71875 L 275.484375 265.65625 L 275.625 265.597656 L 275.761719 265.539062 L 275.902344 265.476562 L 276.449219 265.226562 L 276.582031 265.164062 L 276.71875 265.101562 L 276.851562 265.035156 L 276.980469 264.972656 L 277.101562 264.914062 C 278.433594 264.246094 278.386719 262.320312 277.023438 261.714844 C 276.535156 261.503906 275.996094 261.507812 275.515625 261.75 L 275.417969 261.796875 L 275.304688 261.855469 L 275.183594 261.910156 L 275.066406 261.96875 L 274.832031 262.078125 L 274.589844 262.1875 L 274.464844 262.242188 L 274.34375 262.296875 L 273.96875 262.460938 L 273.839844 262.511719 L 273.710938 262.566406 L 273.582031 262.617188 L 273.453125 262.671875 L 273.324219 262.722656 L 273.191406 262.777344 L 272.925781 262.878906 L 272.789062 262.929688 L 272.65625 262.980469 L 272.515625 263.03125 Z M 259.042969 266.238281 C 257.445312 266.496094 256.996094 268.574219 258.347656 269.46875 C 258.71875 269.710938 259.144531 269.800781 259.582031 269.734375 L 259.601562 269.734375 L 259.789062 269.703125 L 259.976562 269.675781 L 260.167969 269.644531 L 260.355469 269.613281 L 260.539062 269.585938 L 260.730469 269.554688 L 260.914062 269.523438 L 261.476562 269.429688 L 261.660156 269.394531 L 261.847656 269.363281 L 262.03125 269.332031 L 262.21875 269.300781 L 262.585938 269.230469 L 262.769531 269.199219 L 262.953125 269.164062 L 263.128906 269.132812 C 263.785156 269.011719 264.304688 268.535156 264.496094 267.894531 C 264.867188 266.625 263.773438 265.414062 262.476562 265.65625 L 262.308594 265.6875 L 262.132812 265.71875 L 261.953125 265.753906 L 261.773438 265.785156 L 261.597656 265.816406 L 260.519531 266.003906 L 260.335938 266.03125 L 259.976562 266.09375 L 259.792969 266.121094 L 259.609375 266.152344 L 259.429688 266.179688 L 259.246094 266.210938 L 259.0625 266.238281 Z M 245.125 267.558594 C 243.511719 267.671875 242.875 269.6875 244.132812 270.707031 C 244.492188 270.984375 244.898438 271.117188 245.351562 271.089844 L 245.523438 271.078125 L 245.714844 271.066406 L 246.089844 271.042969 L 246.457031 271.019531 L 246.636719 271.007812 L 246.820312 270.992188 L 246.996094 270.984375 L 247.175781 270.972656 L 247.351562 270.960938 L 247.867188 270.925781 L 248.203125 270.902344 L 248.53125 270.878906 L 248.695312 270.871094 L 248.851562 270.859375 L 248.886719 270.855469 C 249.558594 270.808594 250.148438 270.386719 250.402344 269.761719 C 250.898438 268.550781 249.949219 267.238281 248.648438 267.328125 L 248.613281 267.332031 L 248.453125 267.339844 L 248.132812 267.363281 L 247.96875 267.375 L 247.800781 267.382812 L 247.632812 267.394531 L 247.460938 267.40625 L 247.292969 267.417969 L 246.589844 267.464844 L 246.410156 267.476562 L 245.675781 267.523438 L 245.488281 267.535156 L 245.296875 267.546875 Z M 231.023438 268.382812 C 230.007812 268.441406 229.261719 269.308594 229.351562 270.320312 C 229.453125 271.265625 230.25 271.957031 231.203125 271.914062 L 231.390625 271.90625 L 231.617188 271.890625 L 231.84375 271.882812 L 232.070312 271.867188 L 232.300781 271.855469 L 232.527344 271.84375 L 232.757812 271.832031 L 232.984375 271.820312 L 233.214844 271.808594 L 233.441406 271.796875 L 233.671875 271.785156 L 233.898438 271.769531 L 234.125 271.757812 L 234.355469 271.746094 L 234.582031 271.734375 L 234.742188 271.726562 C 235.433594 271.683594 236.015625 271.261719 236.285156 270.625 C 236.773438 269.429688 235.839844 268.117188 234.546875 268.191406 L 234.386719 268.203125 L 233.707031 268.238281 L 233.476562 268.25 L 233.25 268.265625 L 232.796875 268.289062 L 232.566406 268.300781 L 231.207031 268.371094 Z M 216.964844 268.902344 C 216.28125 268.910156 215.679688 269.289062 215.382812 269.902344 C 214.820312 271.089844 215.679688 272.4375 216.988281 272.4375 L 217.097656 272.4375 L 217.238281 272.433594 L 217.535156 272.433594 L 217.683594 272.429688 L 217.835938 272.429688 L 217.988281 272.425781 L 218.144531 272.425781 L 218.300781 272.421875 L 218.621094 272.414062 L 218.785156 272.414062 L 219.113281 272.40625 L 219.285156 272.402344 L 219.453125 272.398438 L 219.796875 272.390625 L 219.972656 272.386719 L 220.148438 272.378906 L 220.324219 272.375 L 220.507812 272.371094 L 220.566406 272.367188 C 222.199219 272.3125 222.894531 270.273438 221.628906 269.230469 C 221.292969 268.957031 220.894531 268.824219 220.460938 268.832031 L 220.402344 268.835938 L 220.226562 268.839844 L 219.878906 268.847656 L 219.707031 268.851562 L 219.535156 268.859375 L 219.199219 268.867188 L 219.035156 268.871094 L 218.875 268.875 L 218.714844 268.875 L 218.394531 268.882812 L 218.242188 268.886719 L 218.089844 268.886719 L 217.785156 268.894531 L 217.496094 268.894531 L 217.351562 268.898438 L 217.074219 268.898438 Z M 335.265625 161.261719 C 336.84375 160.910156 337.171875 158.820312 335.777344 158 C 335.386719 157.777344 334.957031 157.710938 334.519531 157.804688 C 333.339844 158.058594 332.179688 158.410156 331.015625 158.71875 C 329.46875 159.136719 329.222656 161.222656 330.640625 161.988281 C 331.039062 162.203125 331.492188 162.25 331.925781 162.136719 C 333.039062 161.84375 334.148438 161.503906 335.265625 161.261719 "/></g></g></svg>