<svg xmlns="http://www.w3.org/2000/svg" xmlns:xlink="http://www.w3.org/1999/xlink" width="500" zoomAndPan="magnify" viewBox="0 0 375 374.999991" height="500" preserveAspectRatio="xMidYMid meet" version="1.2"><defs><clipPath id="428b6cea23"><path d="M 8 214 L 371 214 L 371 328.640625 L 8 328.640625 Z M 8 214 "/></clipPath><clipPath id="fc30dc13a8"><path d="M 184 46.640625 L 243 46.640625 L 243 143 L 184 143 Z M 184 46.640625 "/></clipPath><clipPath id="adb2a1b561"><path d="M 8 214 L 371 214 L 371 328.640625 L 8 328.640625 Z M 8 214 "/></clipPath><clipPath id="81ab727ca5"><path d="M 184 46.640625 L 243 46.640625 L 243 143 L 184 143 Z M 184 46.640625 "/></clipPath></defs><g id="66189b598f"><g clip-rule="nonzero" clip-path="url(#428b6cea23)"><path style=" stroke:none;fill-rule:nonzero;fill:#ffffff;fill-opacity:1;" d="M 367.503906 237.546875 C 361.0625 234.046875 353.238281 234.535156 346.015625 235.734375 C 316.863281 240.546875 290.328125 255.207031 261.898438 263.234375 C 231.582031 271.792969 200.742188 271.953125 170.0625 265.726562 C 170.0625 265.726562 155.128906 258.683594 172.019531 258.683594 C 180.738281 260.574219 189.027344 262.113281 197.945312 262.613281 L 221.121094 263.789062 L 241.101562 262.476562 C 243.753906 262.304688 246.367188 261.921875 248.949219 261.320312 L 263.859375 257.855469 C 266.382812 257.28125 268.75 256.179688 270.789062 254.597656 C 275.238281 251.15625 281.125 244.78125 272.9375 239.449219 C 269.542969 237.230469 265.453125 236.359375 261.425781 236.777344 C 250.589844 237.886719 223.285156 240.367188 216.410156 237.863281 L 197.550781 234.332031 L 168.488281 226.871094 L 144.136719 220.191406 C 133.890625 217.914062 123.632812 215.152344 113.09375 214.632812 C 104.898438 214.246094 96.578125 214.699219 88.371094 214.699219 C 70.355469 214.699219 54.03125 226.679688 39.53125 236.050781 C 33.734375 239.800781 28.082031 243.796875 22.378906 247.691406 C 22.378906 247.691406 3.527344 259.476562 9.8125 263.789062 L 38.875 304.636719 C 38.875 304.636719 46.730469 308.960938 50.660156 304.636719 C 50.660156 304.636719 68.332031 289.320312 94.257812 298.75 C 102.632812 302.132812 111.160156 306.414062 118.347656 311.894531 C 126.238281 317.894531 135.523438 321.808594 144.917969 324.765625 C 154.371094 327.753906 161.84375 328.308594 171.613281 328.355469 C 177.285156 328.375 182.980469 328.308594 188.628906 327.699219 C 197.800781 326.699219 206.425781 323.691406 215.222656 321.132812 L 267.46875 298.351562 C 298.921875 280.839844 329.464844 261.152344 363.441406 248.765625 C 365.761719 247.929688 368.171875 247.054688 369.734375 245.019531 C 370.164062 244.453125 370.492188 243.785156 370.664062 243.082031 C 371.363281 240.160156 369.453125 238.601562 367.503906 237.546875 "/></g><g clip-rule="nonzero" clip-path="url(#fc30dc13a8)"><path style=" stroke:none;fill-rule:nonzero;fill:#ffffff;fill-opacity:1;" d="M 209.132812 142.824219 L 213.0625 95.964844 L 214.25 95.964844 L 218.1875 142.824219 C 233.007812 132.597656 242.722656 115.503906 242.722656 96.144531 C 242.722656 74.863281 230.992188 56.316406 213.648438 46.625 C 196.316406 56.316406 184.585938 74.863281 184.585938 96.144531 C 184.585938 115.503906 194.3125 132.597656 209.132812 142.824219 "/></g><path style=" stroke:none;fill-rule:nonzero;fill:#ffffff;fill-opacity:1;" d="M 235.589844 191.355469 L 285.132812 149.503906 L 286.273438 150.644531 L 244.421875 200.1875 C 268.851562 204.671875 294.992188 197.46875 313.875 178.585938 C 334.628906 157.835938 341.273438 128.332031 333.8125 101.964844 C 307.457031 94.503906 277.941406 101.148438 257.191406 121.902344 C 238.308594 140.785156 231.105469 166.925781 235.589844 191.355469 "/><path style=" stroke:none;fill-rule:nonzero;fill:#ffffff;fill-opacity:1;" d="M 176.234375 200.414062 L 141.703125 159.53125 L 142.652344 158.582031 L 183.535156 193.121094 C 187.226562 172.972656 181.28125 151.394531 165.703125 135.804688 C 148.585938 118.6875 124.222656 113.207031 102.476562 119.355469 C 96.316406 141.113281 101.808594 165.464844 118.925781 182.59375 C 134.515625 198.171875 156.082031 204.117188 176.234375 200.414062 "/><g clip-rule="nonzero" clip-path="url(#adb2a1b561)"><path style=" stroke:none;fill-rule:nonzero;fill:#ffffff;fill-opacity:1;" d="M 367.503906 237.546875 C 361.0625 234.046875 353.238281 234.535156 346.015625 235.734375 C 316.863281 240.546875 290.328125 255.207031 261.898438 263.234375 C 231.582031 271.792969 200.742188 271.953125 170.0625 265.726562 C 170.0625 265.726562 155.128906 258.683594 172.019531 258.683594 C 180.738281 260.574219 189.027344 262.113281 197.945312 262.613281 L 221.121094 263.789062 L 241.101562 262.476562 C 243.753906 262.304688 246.367188 261.921875 248.949219 261.320312 L 263.859375 257.855469 C 266.382812 257.28125 268.75 256.179688 270.789062 254.597656 C 275.238281 251.15625 281.125 244.78125 272.9375 239.449219 C 269.542969 237.230469 265.453125 236.359375 261.425781 236.777344 C 250.589844 237.886719 223.285156 240.367188 216.410156 237.863281 L 197.550781 234.332031 L 168.488281 226.871094 L 144.136719 220.191406 C 133.890625 217.914062 123.632812 215.152344 113.09375 214.632812 C 104.898438 214.246094 96.578125 214.699219 88.371094 214.699219 C 70.355469 214.699219 54.03125 226.679688 39.53125 236.050781 C 33.734375 239.800781 28.082031 243.796875 22.378906 247.691406 C 22.378906 247.691406 3.527344 259.476562 9.8125 263.789062 L 38.875 304.636719 C 38.875 304.636719 46.730469 308.960938 50.660156 304.636719 C 50.660156 304.636719 68.332031 289.320312 94.257812 298.75 C 102.632812 302.132812 111.160156 306.414062 118.347656 311.894531 C 126.238281 317.894531 135.523438 321.808594 144.917969 324.765625 C 154.371094 327.753906 161.84375 328.308594 171.613281 328.355469 C 177.285156 328.375 182.980469 328.308594 188.628906 327.699219 C 197.800781 326.699219 206.425781 323.691406 215.222656 321.132812 L 267.46875 298.351562 C 298.921875 280.839844 329.464844 261.152344 363.441406 248.765625 C 365.761719 247.929688 368.171875 247.054688 369.734375 245.019531 C 370.164062 244.453125 370.492188 243.785156 370.664062 243.082031 C 371.363281 240.160156 369.453125 238.601562 367.503906 237.546875 "/></g><g clip-rule="nonzero" clip-path="url(#81ab727ca5)"><path style=" stroke:none;fill-rule:nonzero;fill:#ffffff;fill-opacity:1;" d="M 209.132812 142.824219 L 213.0625 95.964844 L 214.25 95.964844 L 218.1875 142.824219 C 233.007812 132.597656 242.722656 115.503906 242.722656 96.144531 C 242.722656 74.863281 230.992188 56.316406 213.648438 46.625 C 196.316406 56.316406 184.585938 74.863281 184.585938 96.144531 C 184.585938 115.503906 194.3125 132.597656 209.132812 142.824219 "/></g><path style=" stroke:none;fill-rule:nonzero;fill:#ffffff;fill-opacity:1;" d="M 235.589844 191.355469 L 285.132812 149.503906 L 286.273438 150.644531 L 244.421875 200.1875 C 268.851562 204.671875 294.992188 197.46875 313.875 178.585938 C 334.628906 157.835938 341.273438 128.332031 333.8125 101.964844 C 307.457031 94.503906 277.941406 101.148438 257.191406 121.902344 C 238.308594 140.785156 231.105469 166.925781 235.589844 191.355469 "/><path style=" stroke:none;fill-rule:nonzero;fill:#ffffff;fill-opacity:1;" d="M 176.234375 200.414062 L 141.703125 159.53125 L 142.652344 158.582031 L 183.535156 193.121094 C 187.226562 172.972656 181.28125 151.394531 165.703125 135.804688 C 148.585938 118.6875 124.222656 113.207031 102.476562 119.355469 C 96.316406 141.113281 101.808594 165.464844 118.925781 182.59375 C 134.515625 198.171875 156.082031 204.117188 176.234375 200.414062 "/></g></svg>