<svg xmlns="http://www.w3.org/2000/svg" xmlns:xlink="http://www.w3.org/1999/xlink" width="500" zoomAndPan="magnify" viewBox="0 0 375 374.999991" height="500" preserveAspectRatio="xMidYMid meet" version="1.2"><defs><clipPath id="848c82aabe"><path d="M 218 91 L 362.757812 91 L 362.757812 278 L 218 278 Z M 218 91 "/></clipPath><clipPath id="aeefc5856d"><path d="M 118 19.507812 L 262 19.507812 L 262 206 L 118 206 Z M 118 19.507812 "/></clipPath><clipPath id="5c3c62ef12"><path d="M 17 175 L 208 175 L 208 355.507812 L 17 355.507812 Z M 17 175 "/></clipPath><clipPath id="d43dda7257"><path d="M 218 91 L 362.757812 91 L 362.757812 278 L 218 278 Z M 218 91 "/></clipPath><clipPath id="d21bd5a459"><path d="M 118 19.507812 L 262 19.507812 L 262 206 L 118 206 Z M 118 19.507812 "/></clipPath><clipPath id="11677b002b"><path d="M 17 175 L 208 175 L 208 355.507812 L 17 355.507812 Z M 17 175 "/></clipPath></defs><g id="c836f33e4a"><g clip-rule="nonzero" clip-path="url(#848c82aabe)"><path style=" stroke:none;fill-rule:nonzero;fill:#ffffff;fill-opacity:1;" d="M 347.691406 91.066406 C 333.378906 91.066406 319.058594 105.382812 290.429688 105.382812 C 261.796875 105.382812 247.484375 91.066406 233.164062 91.066406 C 226.417969 91.066406 218.851562 98.226562 218.851562 105.382812 L 218.851562 205.589844 C 218.851562 237.3125 233.164062 277.167969 290.429688 277.167969 C 347.691406 277.167969 362.003906 237.3125 362.003906 205.589844 L 362.003906 105.382812 C 362.003906 98.226562 354.441406 91.066406 347.691406 91.066406 Z M 240.328125 159.066406 C 240.328125 149.179688 248.335938 141.171875 258.222656 141.171875 C 268.101562 141.171875 276.117188 149.183594 276.117188 159.066406 C 276.117188 168.949219 268.105469 176.960938 258.222656 176.960938 C 248.335938 176.960938 240.328125 168.949219 240.328125 159.066406 Z M 290.429688 248.539062 C 254.640625 248.539062 247.484375 219.910156 247.484375 219.910156 L 333.378906 219.910156 C 333.378906 219.910156 326.21875 248.539062 290.429688 248.539062 Z M 322.640625 176.960938 C 312.757812 176.960938 304.746094 168.949219 304.746094 159.066406 C 304.746094 149.179688 312.757812 141.171875 322.640625 141.171875 C 332.519531 141.171875 340.535156 149.183594 340.535156 159.066406 C 340.535156 168.949219 332.519531 176.960938 322.640625 176.960938 Z M 322.640625 176.960938 "/></g><g clip-rule="nonzero" clip-path="url(#aeefc5856d)"><path style=" stroke:none;fill-rule:nonzero;fill:#ffffff;fill-opacity:1;" d="M 179.015625 205.027344 C 182.550781 205.394531 186.277344 205.589844 190.21875 205.589844 C 195.355469 205.589844 200.046875 205.347656 204.539062 204.703125 L 204.539062 162.65625 L 147.273438 162.65625 C 147.273438 162.65625 154.429688 134.023438 190.21875 134.023438 C 197.382812 134.023438 200.191406 135.082031 204.539062 136.707031 L 204.539062 105.394531 C 204.539062 92.273438 209.769531 81.304688 218.851562 76.761719 C 233.164062 69.605469 238.941406 72.496094 247.484375 76.761719 C 261.796875 83.921875 261.796875 83.921875 261.796875 83.921875 L 261.796875 33.8125 C 261.796875 26.65625 254.230469 19.5 247.484375 19.5 C 233.167969 19.5 218.851562 33.8125 190.21875 33.8125 C 161.589844 33.8125 147.273438 19.5 132.960938 19.5 L 132.960938 19.492188 C 126.210938 19.492188 118.648438 26.648438 118.648438 33.808594 L 118.648438 134.015625 C 118.648438 146.742188 121.035156 160.746094 127.5 172.992188 C 130.035156 174.054688 132.558594 175.179688 135.046875 176.445312 C 152.375 185.28125 167.027344 194.847656 179.015625 205.027344 Z M 158.011719 69.59375 C 167.894531 69.59375 175.90625 77.609375 175.90625 87.492188 C 175.90625 97.375 167.894531 105.386719 158.011719 105.386719 C 148.128906 105.386719 140.121094 97.375 140.121094 87.492188 C 140.121094 77.609375 148.128906 69.59375 158.011719 69.59375 Z M 158.011719 69.59375 "/></g><g clip-rule="nonzero" clip-path="url(#5c3c62ef12)"><path style=" stroke:none;fill-rule:nonzero;fill:#ffffff;fill-opacity:1;" d="M 86.972656 175.078125 C 55.527344 175.078125 29.726562 190.832031 22.828125 204.363281 C 12.921875 223.824219 15.21875 243.371094 34.671875 253.273438 C 54.125 263.183594 61.382812 272.992188 53.949219 287.59375 C 44.042969 307.042969 51.203125 329.058594 70.660156 338.96875 C 93.367188 350.53125 113.921875 355.46875 131.738281 355.46875 C 163.535156 355.46875 186.628906 339.757812 197.734375 317.945312 C 227.453125 259.578125 188.722656 215.359375 130.371094 185.632812 C 115.566406 178.097656 100.730469 175.078125 86.972656 175.078125 Z M 65.363281 229.085938 C 62.957031 233.824219 58.167969 236.546875 53.191406 236.546875 C 51.113281 236.546875 48.996094 236.070312 47.015625 235.054688 C 40.296875 231.632812 37.625 223.425781 41.046875 216.710938 C 43.453125 211.976562 48.238281 209.257812 53.210938 209.257812 C 55.292969 209.257812 57.40625 209.734375 59.390625 210.746094 C 66.109375 214.167969 68.785156 222.375 65.363281 229.085938 Z M 102.589844 312.355469 C 99.699219 318.03125 93.941406 321.300781 87.980469 321.300781 C 85.476562 321.300781 82.945312 320.730469 80.566406 319.515625 C 72.507812 315.417969 69.308594 305.554688 73.40625 297.488281 C 76.296875 291.8125 82.050781 288.546875 88.007812 288.546875 C 90.511719 288.546875 93.046875 289.113281 95.425781 290.328125 C 103.480469 294.4375 106.691406 304.300781 102.589844 312.355469 Z M 114.269531 217.238281 C 111.859375 221.976562 107.070312 224.699219 102.097656 224.699219 C 100.011719 224.699219 97.898438 224.222656 95.917969 223.210938 C 89.203125 219.789062 86.53125 211.582031 89.953125 204.859375 C 92.359375 200.136719 97.148438 197.410156 102.117188 197.410156 C 104.199219 197.410156 106.316406 197.886719 108.300781 198.902344 C 115.015625 202.316406 117.6875 210.535156 114.269531 217.238281 Z M 157.859375 263.945312 C 160.273438 259.203125 165.058594 256.488281 170.027344 256.484375 C 172.113281 256.484375 174.230469 256.964844 176.214844 257.972656 C 182.925781 261.394531 185.59375 269.613281 182.179688 276.324219 C 179.769531 281.054688 174.980469 283.777344 170.011719 283.777344 C 167.925781 283.777344 165.8125 283.300781 163.828125 282.289062 C 157.109375 278.867188 154.4375 270.664062 157.859375 263.945312 Z M 141.023438 217.226562 C 143.109375 217.226562 145.226562 217.703125 147.210938 218.71875 C 153.921875 222.125 156.59375 230.347656 153.171875 237.054688 C 150.761719 241.792969 145.976562 244.515625 141.003906 244.515625 C 138.925781 244.515625 136.808594 244.03125 134.828125 243.027344 C 128.109375 239.605469 125.441406 231.386719 128.859375 224.671875 C 131.269531 219.941406 136.054688 217.226562 141.023438 217.226562 Z M 141.023438 217.226562 "/></g><g clip-rule="nonzero" clip-path="url(#d43dda7257)"><path style=" stroke:none;fill-rule:nonzero;fill:#ffffff;fill-opacity:1;" d="M 347.691406 91.066406 C 333.378906 91.066406 319.058594 105.382812 290.429688 105.382812 C 261.796875 105.382812 247.484375 91.066406 233.164062 91.066406 C 226.417969 91.066406 218.851562 98.226562 218.851562 105.382812 L 218.851562 205.589844 C 218.851562 237.3125 233.164062 277.167969 290.429688 277.167969 C 347.691406 277.167969 362.003906 237.3125 362.003906 205.589844 L 362.003906 105.382812 C 362.003906 98.226562 354.441406 91.066406 347.691406 91.066406 Z M 240.328125 159.066406 C 240.328125 149.179688 248.335938 141.171875 258.222656 141.171875 C 268.101562 141.171875 276.117188 149.183594 276.117188 159.066406 C 276.117188 168.949219 268.105469 176.960938 258.222656 176.960938 C 248.335938 176.960938 240.328125 168.949219 240.328125 159.066406 Z M 290.429688 248.539062 C 254.640625 248.539062 247.484375 219.910156 247.484375 219.910156 L 333.378906 219.910156 C 333.378906 219.910156 326.21875 248.539062 290.429688 248.539062 Z M 322.640625 176.960938 C 312.757812 176.960938 304.746094 168.949219 304.746094 159.066406 C 304.746094 149.179688 312.757812 141.171875 322.640625 141.171875 C 332.519531 141.171875 340.535156 149.183594 340.535156 159.066406 C 340.535156 168.949219 332.519531 176.960938 322.640625 176.960938 Z M 322.640625 176.960938 "/></g><g clip-rule="nonzero" clip-path="url(#d21bd5a459)"><path style=" stroke:none;fill-rule:nonzero;fill:#ffffff;fill-opacity:1;" d="M 179.015625 205.027344 C 182.550781 205.394531 186.277344 205.589844 190.21875 205.589844 C 195.355469 205.589844 200.046875 205.347656 204.539062 204.703125 L 204.539062 162.65625 L 147.273438 162.65625 C 147.273438 162.65625 154.429688 134.023438 190.21875 134.023438 C 197.382812 134.023438 200.191406 135.082031 204.539062 136.707031 L 204.539062 105.394531 C 204.539062 92.273438 209.769531 81.304688 218.851562 76.761719 C 233.164062 69.605469 238.941406 72.496094 247.484375 76.761719 C 261.796875 83.921875 261.796875 83.921875 261.796875 83.921875 L 261.796875 33.8125 C 261.796875 26.65625 254.230469 19.5 247.484375 19.5 C 233.167969 19.5 218.851562 33.8125 190.21875 33.8125 C 161.589844 33.8125 147.273438 19.5 132.960938 19.5 L 132.960938 19.492188 C 126.210938 19.492188 118.648438 26.648438 118.648438 33.808594 L 118.648438 134.015625 C 118.648438 146.742188 121.035156 160.746094 127.5 172.992188 C 130.035156 174.054688 132.558594 175.179688 135.046875 176.445312 C 152.375 185.28125 167.027344 194.847656 179.015625 205.027344 Z M 158.011719 69.59375 C 167.894531 69.59375 175.90625 77.609375 175.90625 87.492188 C 175.90625 97.375 167.894531 105.386719 158.011719 105.386719 C 148.128906 105.386719 140.121094 97.375 140.121094 87.492188 C 140.121094 77.609375 148.128906 69.59375 158.011719 69.59375 Z M 158.011719 69.59375 "/></g><g clip-rule="nonzero" clip-path="url(#11677b002b)"><path style=" stroke:none;fill-rule:nonzero;fill:#ffffff;fill-opacity:1;" d="M 86.972656 175.078125 C 55.527344 175.078125 29.726562 190.832031 22.828125 204.363281 C 12.921875 223.824219 15.21875 243.371094 34.671875 253.273438 C 54.125 263.183594 61.382812 272.992188 53.949219 287.59375 C 44.042969 307.042969 51.203125 329.058594 70.660156 338.96875 C 93.367188 350.53125 113.921875 355.46875 131.738281 355.46875 C 163.535156 355.46875 186.628906 339.757812 197.734375 317.945312 C 227.453125 259.578125 188.722656 215.359375 130.371094 185.632812 C 115.566406 178.097656 100.730469 175.078125 86.972656 175.078125 Z M 65.363281 229.085938 C 62.957031 233.824219 58.167969 236.546875 53.191406 236.546875 C 51.113281 236.546875 48.996094 236.070312 47.015625 235.054688 C 40.296875 231.632812 37.625 223.425781 41.046875 216.710938 C 43.453125 211.976562 48.238281 209.257812 53.210938 209.257812 C 55.292969 209.257812 57.40625 209.734375 59.390625 210.746094 C 66.109375 214.167969 68.785156 222.375 65.363281 229.085938 Z M 102.589844 312.355469 C 99.699219 318.03125 93.941406 321.300781 87.980469 321.300781 C 85.476562 321.300781 82.945312 320.730469 80.566406 319.515625 C 72.507812 315.417969 69.308594 305.554688 73.40625 297.488281 C 76.296875 291.8125 82.050781 288.546875 88.007812 288.546875 C 90.511719 288.546875 93.046875 289.113281 95.425781 290.328125 C 103.480469 294.4375 106.691406 304.300781 102.589844 312.355469 Z M 114.269531 217.238281 C 111.859375 221.976562 107.070312 224.699219 102.097656 224.699219 C 100.011719 224.699219 97.898438 224.222656 95.917969 223.210938 C 89.203125 219.789062 86.53125 211.582031 89.953125 204.859375 C 92.359375 200.136719 97.148438 197.410156 102.117188 197.410156 C 104.199219 197.410156 106.316406 197.886719 108.300781 198.902344 C 115.015625 202.316406 117.6875 210.535156 114.269531 217.238281 Z M 157.859375 263.945312 C 160.273438 259.203125 165.058594 256.488281 170.027344 256.484375 C 172.113281 256.484375 174.230469 256.964844 176.214844 257.972656 C 182.925781 261.394531 185.59375 269.613281 182.179688 276.324219 C 179.769531 281.054688 174.980469 283.777344 170.011719 283.777344 C 167.925781 283.777344 165.8125 283.300781 163.828125 282.289062 C 157.109375 278.867188 154.4375 270.664062 157.859375 263.945312 Z M 141.023438 217.226562 C 143.109375 217.226562 145.226562 217.703125 147.210938 218.71875 C 153.921875 222.125 156.59375 230.347656 153.171875 237.054688 C 150.761719 241.792969 145.976562 244.515625 141.003906 244.515625 C 138.925781 244.515625 136.808594 244.03125 134.828125 243.027344 C 128.109375 239.605469 125.441406 231.386719 128.859375 224.671875 C 131.269531 219.941406 136.054688 217.226562 141.023438 217.226562 Z M 141.023438 217.226562 "/></g></g></svg>