<svg xmlns="http://www.w3.org/2000/svg" xmlns:xlink="http://www.w3.org/1999/xlink" width="500" zoomAndPan="magnify" viewBox="0 0 375 374.999991" height="500" preserveAspectRatio="xMidYMid meet" version="1.2"><defs><clipPath id="d948ba6fc3"><path d="M 10 51 L 367.671875 51 L 367.671875 327 L 10 327 Z M 10 51 "/></clipPath></defs><g id="acd07c89d7"><g clip-rule="nonzero" clip-path="url(#d948ba6fc3)"><path style=" stroke:none;fill-rule:nonzero;fill:#ffffff;fill-opacity:1;" d="M 169.738281 108.550781 C 173.257812 101.679688 175.730469 96.207031 178.75 91.066406 C 190.53125 71.011719 206.539062 56.039062 230.257812 52.167969 C 249.59375 49.011719 268.3125 52.292969 285.742188 61.519531 C 308.765625 73.710938 322 93.308594 327.234375 118.367188 C 331.40625 138.339844 329.132812 158.058594 322.726562 177.335938 C 322.007812 179.503906 321.035156 181.589844 320.054688 184.035156 C 291.878906 184.035156 263.890625 184.035156 234.886719 184.035156 C 232.890625 180.324219 230.519531 176.105469 228.3125 171.804688 C 225.136719 165.640625 221.964844 159.472656 219 153.207031 C 216.472656 147.875 212.980469 143.613281 206.652344 144.019531 C 200.488281 144.414062 197.273438 148.582031 195.210938 154.3125 C 189.546875 170.078125 183.484375 185.707031 177.566406 201.378906 C 177.0625 202.714844 176.460938 204.019531 175.441406 206.441406 C 174.222656 204.101562 173.191406 202.628906 172.648438 200.984375 C 165.519531 179.613281 158.457031 158.21875 151.382812 136.832031 C 150.929688 135.457031 150.605469 134.039062 150.070312 132.703125 C 148.089844 127.746094 144.65625 124.3125 139.117188 124.265625 C 133.710938 124.226562 129.875 127.066406 127.816406 132.171875 C 122.628906 145.03125 117.429688 157.890625 112.203125 170.738281 C 110.46875 175.007812 108.628906 179.238281 106.421875 184.457031 C 103.164062 184.457031 99.761719 184.453125 96.367188 184.457031 C 87.980469 184.476562 79.582031 184.257812 71.207031 184.601562 C 64.53125 184.875 60.351562 189.421875 60.199219 195.65625 C 60.054688 201.554688 63.707031 206.183594 69.648438 207.390625 C 71.328125 207.730469 73.101562 207.683594 74.828125 207.691406 C 87.265625 207.710938 99.707031 207.527344 112.136719 207.761719 C 119.53125 207.902344 124.039062 204.675781 126.625 197.859375 C 129.890625 189.246094 133.515625 180.769531 137.640625 170.613281 C 139.445312 175.738281 140.785156 179.339844 141.992188 182.988281 C 148.890625 203.832031 155.769531 224.675781 162.609375 245.539062 C 164.363281 250.882812 167.199219 254.828125 173.402344 255.171875 C 179.480469 255.511719 183.222656 253.148438 185.78125 246.523438 C 190.566406 234.128906 195.125 221.648438 199.78125 209.203125 C 202.605469 201.640625 205.449219 194.089844 208.757812 185.25 C 211.089844 189.808594 213.203125 193.136719 214.5625 196.753906 C 217.648438 204.945312 223.253906 207.90625 231.980469 207.839844 C 271.601562 207.53125 311.226562 207.695312 350.851562 207.707031 C 353.738281 207.707031 356.667969 207.546875 359.515625 207.921875 C 363.980469 208.507812 367.117188 212.0625 367.144531 216.035156 C 367.175781 219.957031 364.074219 223.585938 359.652344 224.335938 C 357.398438 224.714844 355.042969 224.550781 352.730469 224.554688 C 336.246094 224.578125 319.761719 224.644531 303.277344 224.539062 C 299.570312 224.515625 296.851562 225.347656 294.371094 228.519531 C 268.1875 261.988281 235.304688 287.757812 199.601562 310.191406 C 191.527344 315.261719 183.113281 319.789062 174.917969 324.664062 C 171.671875 326.597656 168.730469 326.859375 165.246094 324.917969 C 121.238281 300.394531 80.585938 271.621094 48.339844 232.304688 C 31.457031 211.722656 18.421875 189.015625 13.039062 162.617188 C 7.78125 136.808594 9.890625 111.773438 24.199219 89.058594 C 38.773438 65.929688 60.820312 54.429688 87.566406 51.613281 C 120.746094 48.121094 144.335938 62.960938 160.898438 90.746094 C 162.523438 93.472656 163.886719 96.363281 165.296875 99.203125 C 166.574219 101.753906 167.753906 104.355469 169.738281 108.550781 Z M 169.738281 108.550781 "/><path style=" stroke:none;fill-rule:nonzero;fill:#ffffff;fill-opacity:1;" d="M 169.738281 108.550781 C 173.257812 101.679688 175.730469 96.207031 178.75 91.066406 C 190.53125 71.011719 206.539062 56.039062 230.257812 52.167969 C 249.59375 49.011719 268.3125 52.292969 285.742188 61.519531 C 308.765625 73.710938 322 93.308594 327.234375 118.367188 C 331.40625 138.339844 329.132812 158.058594 322.726562 177.335938 C 322.007812 179.503906 321.035156 181.589844 320.054688 184.035156 C 291.878906 184.035156 263.890625 184.035156 234.886719 184.035156 C 232.890625 180.324219 230.519531 176.105469 228.3125 171.804688 C 225.136719 165.640625 221.964844 159.472656 219 153.207031 C 216.472656 147.875 212.980469 143.613281 206.652344 144.019531 C 200.488281 144.414062 197.273438 148.582031 195.210938 154.3125 C 189.546875 170.078125 183.484375 185.707031 177.566406 201.378906 C 177.0625 202.714844 176.460938 204.019531 175.441406 206.441406 C 174.222656 204.101562 173.191406 202.628906 172.648438 200.984375 C 165.519531 179.613281 158.457031 158.21875 151.382812 136.832031 C 150.929688 135.457031 150.605469 134.039062 150.070312 132.703125 C 148.089844 127.746094 144.65625 124.3125 139.117188 124.265625 C 133.710938 124.226562 129.875 127.066406 127.816406 132.171875 C 122.628906 145.03125 117.429688 157.890625 112.203125 170.738281 C 110.46875 175.007812 108.628906 179.238281 106.421875 184.457031 C 103.164062 184.457031 99.761719 184.453125 96.367188 184.457031 C 87.980469 184.476562 79.582031 184.257812 71.207031 184.601562 C 64.53125 184.875 60.351562 189.421875 60.199219 195.65625 C 60.054688 201.554688 63.707031 206.183594 69.648438 207.390625 C 71.328125 207.730469 73.101562 207.683594 74.828125 207.691406 C 87.265625 207.710938 99.707031 207.527344 112.136719 207.761719 C 119.53125 207.902344 124.039062 204.675781 126.625 197.859375 C 129.890625 189.246094 133.515625 180.769531 137.640625 170.613281 C 139.445312 175.738281 140.785156 179.339844 141.992188 182.988281 C 148.890625 203.832031 155.769531 224.675781 162.609375 245.539062 C 164.363281 250.882812 167.199219 254.828125 173.402344 255.171875 C 179.480469 255.511719 183.222656 253.148438 185.78125 246.523438 C 190.566406 234.128906 195.125 221.648438 199.78125 209.203125 C 202.605469 201.640625 205.449219 194.089844 208.757812 185.25 C 211.089844 189.808594 213.203125 193.136719 214.5625 196.753906 C 217.648438 204.945312 223.253906 207.90625 231.980469 207.839844 C 271.601562 207.53125 311.226562 207.695312 350.851562 207.707031 C 353.738281 207.707031 356.667969 207.546875 359.515625 207.921875 C 363.980469 208.507812 367.117188 212.0625 367.144531 216.035156 C 367.175781 219.957031 364.074219 223.585938 359.652344 224.335938 C 357.398438 224.714844 355.042969 224.550781 352.730469 224.554688 C 336.246094 224.578125 319.761719 224.644531 303.277344 224.539062 C 299.570312 224.515625 296.851562 225.347656 294.371094 228.519531 C 268.1875 261.988281 235.304688 287.757812 199.601562 310.191406 C 191.527344 315.261719 183.113281 319.789062 174.917969 324.664062 C 171.671875 326.597656 168.730469 326.859375 165.246094 324.917969 C 121.238281 300.394531 80.585938 271.621094 48.339844 232.304688 C 31.457031 211.722656 18.421875 189.015625 13.039062 162.617188 C 7.78125 136.808594 9.890625 111.773438 24.199219 89.058594 C 38.773438 65.929688 60.820312 54.429688 87.566406 51.613281 C 120.746094 48.121094 144.335938 62.960938 160.898438 90.746094 C 162.523438 93.472656 163.886719 96.363281 165.296875 99.203125 C 166.574219 101.753906 167.753906 104.355469 169.738281 108.550781 Z M 169.738281 108.550781 "/></g></g></svg>