<svg xmlns="http://www.w3.org/2000/svg" xmlns:xlink="http://www.w3.org/1999/xlink" width="500" zoomAndPan="magnify" viewBox="0 0 375 374.999991" height="500" preserveAspectRatio="xMidYMid meet" version="1.2"><defs><clipPath id="29b442e83d"><path d="M 13.324219 174 L 361.324219 174 L 361.324219 345.402344 L 13.324219 345.402344 Z M 13.324219 174 "/></clipPath><clipPath id="b8c8e8a358"><path d="M 13.324219 29.652344 L 361.324219 29.652344 L 361.324219 173 L 13.324219 173 Z M 13.324219 29.652344 "/></clipPath><clipPath id="b14007b904"><path d="M 13.324219 174 L 361.324219 174 L 361.324219 345.402344 L 13.324219 345.402344 Z M 13.324219 174 "/></clipPath><clipPath id="516433795c"><path d="M 13.324219 29.652344 L 361.324219 29.652344 L 361.324219 173 L 13.324219 173 Z M 13.324219 29.652344 "/></clipPath></defs><g id="c154ccffaa"><g clip-rule="nonzero" clip-path="url(#29b442e83d)"><path style=" stroke:none;fill-rule:nonzero;fill:#ffffff;fill-opacity:1;" d="M 361.230469 310.640625 L 361.230469 174.082031 C 359.378906 175.894531 357.375 177.625 355.328125 179.199219 C 353.4375 180.65625 351.46875 181.992188 349.421875 183.253906 C 342.695312 187.34375 335.21875 190.140625 327.386719 191.359375 C 316.839844 192.972656 305.9375 192.34375 295.273438 192.34375 L 219.871094 192.34375 C 219.59375 192.34375 219.320312 192.34375 219.042969 192.304688 L 219.042969 197.183594 C 219.042969 197.773438 219.082031 198.324219 219.042969 198.914062 C 218.886719 202.101562 216.523438 204.464844 213.335938 204.621094 C 207.710938 204.898438 202.003906 204.621094 196.335938 204.621094 L 168.867188 204.621094 C 166.46875 204.621094 164.066406 204.660156 161.664062 204.621094 C 158.085938 204.542969 155.605469 202.140625 155.566406 198.523438 C 155.527344 196.476562 155.527344 194.390625 155.527344 192.34375 C 155.289062 192.382812 155.015625 192.382812 154.777344 192.382812 C 154.621094 192.382812 154.425781 192.382812 154.265625 192.382812 C 143.5625 192.539062 132.820312 192.382812 122.113281 192.382812 L 74.300781 192.382812 C 62.492188 192.382812 50.410156 193.128906 39 189.46875 C 34.238281 187.933594 29.59375 185.851562 25.226562 183.292969 C 23.179688 182.070312 21.210938 180.773438 19.320312 179.355469 C 17.234375 177.78125 15.269531 176.089844 13.417969 174.28125 L 13.417969 323.117188 C 13.417969 324.21875 13.378906 325.320312 13.457031 326.421875 C 14.246094 336.8125 22.707031 344.839844 33.136719 344.996094 C 35.691406 345.035156 38.210938 344.996094 40.769531 344.996094 L 330.847656 344.996094 C 334.234375 344.996094 337.65625 344.996094 341.042969 344.996094 C 352.53125 344.957031 361.191406 335.90625 361.230469 324.535156 C 361.230469 319.8125 361.230469 315.246094 361.230469 310.640625 Z M 361.230469 310.640625 "/></g><g clip-rule="nonzero" clip-path="url(#b8c8e8a358)"><path style=" stroke:none;fill-rule:nonzero;fill:#ffffff;fill-opacity:1;" d="M 361.152344 113.203125 L 361.152344 99.664062 C 360.402344 89.355469 351.980469 81.246094 341.511719 81.089844 C 340.804688 81.089844 340.136719 81.089844 339.429688 81.089844 L 255.054688 81.089844 L 255.054688 51.691406 C 255.054688 45.710938 253.359375 40.042969 249.03125 35.714844 C 244.976562 31.621094 239.507812 29.730469 233.800781 29.691406 C 228.644531 29.691406 223.53125 29.691406 218.375 29.691406 L 143.011719 29.691406 C 142.027344 29.691406 141.042969 29.652344 140.097656 29.691406 C 128.804688 29.929688 119.910156 38.863281 119.636719 50.15625 C 119.398438 60.429688 119.515625 70.777344 119.597656 81.089844 L 37.347656 81.089844 C 36.125 81.089844 34.945312 81.089844 33.726562 81.089844 C 28.453125 81.089844 23.53125 82.898438 19.636719 86.519531 C 15.859375 90.0625 13.851562 94.902344 13.535156 99.980469 L 13.535156 119.066406 C 13.535156 121.820312 13.535156 124.535156 13.535156 127.289062 C 13.535156 128.472656 13.535156 129.613281 13.617188 130.792969 C 13.65625 131.621094 13.734375 132.40625 13.8125 133.234375 C 13.8125 133.351562 13.851562 133.46875 13.851562 133.585938 C 14.046875 134.730469 14.207031 135.871094 14.441406 136.972656 C 15.03125 139.726562 15.898438 142.441406 16.882812 145.078125 C 16.882812 145.117188 16.882812 145.117188 16.921875 145.15625 C 16.921875 145.195312 16.921875 145.195312 16.960938 145.234375 C 17 145.316406 17 145.355469 17.039062 145.433594 C 17.277344 145.984375 17.550781 146.535156 17.828125 147.085938 C 18.339844 148.109375 18.851562 149.09375 19.402344 150.078125 C 19.480469 150.234375 19.558594 150.390625 19.675781 150.507812 C 20.425781 151.769531 21.210938 153.027344 22.078125 154.210938 C 22.429688 154.71875 22.824219 155.152344 23.140625 155.664062 C 23.101562 155.585938 23.0625 155.507812 23.019531 155.429688 C 23.101562 155.546875 23.140625 155.625 23.21875 155.703125 C 23.886719 156.53125 24.59375 157.355469 25.34375 158.144531 C 26.484375 159.363281 27.703125 160.546875 28.964844 161.6875 C 29.476562 162.160156 29.988281 162.589844 30.539062 163.023438 C 30.617188 163.101562 30.734375 163.183594 30.851562 163.261719 C 31.523438 163.695312 31.796875 163.851562 31.835938 163.890625 C 31.796875 163.890625 31.601562 163.734375 31.324219 163.574219 C 32.152344 164.125 32.9375 164.757812 33.765625 165.308594 C 35.96875 166.722656 38.25 167.984375 40.613281 169.085938 C 42.894531 169.792969 41.675781 169.519531 40.925781 169.242188 C 41.007812 169.28125 41.046875 169.28125 41.125 169.320312 C 41.792969 169.558594 42.421875 169.832031 43.09375 170.03125 C 44.351562 170.460938 45.609375 170.855469 46.871094 171.210938 C 48.246094 171.5625 49.625 171.878906 51.042969 172.15625 C 51.511719 172.234375 51.984375 172.3125 52.457031 172.390625 C 52.734375 172.429688 53.007812 172.429688 53.246094 172.46875 C 56.746094 172.785156 60.289062 172.707031 63.792969 172.707031 L 154.898438 172.707031 C 155.171875 172.707031 155.449219 172.707031 155.722656 172.746094 L 155.722656 163.261719 C 155.722656 160.503906 155.328125 157.554688 157.574219 155.507812 C 159.5 153.738281 162.019531 154.011719 164.421875 154.011719 L 212.039062 154.011719 C 212.511719 154.011719 213.023438 154.011719 213.496094 154.011719 C 216.566406 154.167969 218.730469 156.292969 219.121094 159.246094 C 219.160156 159.402344 219.160156 159.5625 219.160156 159.71875 C 219.160156 159.796875 219.160156 159.875 219.160156 159.953125 L 219.160156 172.785156 C 219.4375 172.746094 219.710938 172.746094 219.988281 172.746094 L 220.5 172.746094 C 230.929688 172.546875 241.359375 172.746094 251.746094 172.746094 L 316.601562 172.746094 C 318.292969 172.746094 319.949219 172.667969 321.640625 172.507812 C 321.953125 172.46875 322.308594 172.429688 322.625 172.390625 C 323.015625 172.3125 323.449219 172.273438 323.84375 172.195312 C 325.222656 171.917969 326.636719 171.644531 328.015625 171.25 C 329.390625 170.894531 330.730469 170.460938 332.070312 169.988281 C 332.699219 169.753906 333.289062 169.519531 333.917969 169.28125 C 336.359375 168.140625 338.679688 166.921875 340.921875 165.464844 C 341.671875 164.992188 342.378906 164.519531 343.085938 164.007812 C 343.285156 163.851562 343.914062 163.378906 344.191406 163.183594 C 344.191406 163.183594 344.230469 163.140625 344.230469 163.140625 C 344.269531 163.101562 344.347656 163.0625 344.347656 163.023438 C 344.898438 162.589844 345.410156 162.121094 345.921875 161.6875 C 347.179688 160.585938 348.359375 159.402344 349.542969 158.144531 C 350.289062 157.355469 350.996094 156.570312 351.667969 155.703125 C 351.707031 155.625 351.785156 155.585938 351.824219 155.507812 C 352.140625 154.996094 352.570312 154.484375 352.925781 154.011719 C 353.675781 152.949219 354.382812 151.847656 355.011719 150.746094 C 355.128906 150.511719 355.289062 150.273438 355.40625 150.078125 C 355.996094 149.015625 356.585938 147.953125 357.097656 146.851562 C 357.332031 146.339844 357.609375 145.789062 357.84375 145.277344 C 358.828125 142.679688 359.695312 140.042969 360.285156 137.285156 C 360.480469 136.421875 360.640625 135.515625 360.796875 134.648438 C 360.796875 134.648438 360.796875 134.609375 360.796875 134.609375 C 360.796875 134.609375 360.796875 134.570312 360.796875 134.570312 C 360.796875 134.53125 360.796875 134.492188 360.796875 134.453125 C 360.796875 134.414062 360.796875 134.375 360.835938 134.335938 C 360.875 133.941406 360.953125 133.429688 360.992188 133.117188 C 361.074219 132.40625 361.113281 131.660156 361.152344 130.949219 C 361.191406 129.808594 361.230469 128.667969 361.269531 127.527344 L 361.269531 119.734375 C 361.191406 117.414062 361.152344 115.328125 361.152344 113.203125 Z M 235.492188 50.3125 C 235.492188 50.355469 235.492188 50.394531 235.53125 50.394531 C 235.53125 50.394531 235.53125 50.433594 235.53125 50.433594 C 235.574219 50.628906 235.613281 50.746094 235.53125 50.550781 C 235.492188 50.589844 235.414062 50.511719 235.375 50.433594 C 235.574219 60.664062 235.492188 70.894531 235.414062 81.128906 L 139.273438 81.128906 L 139.273438 52.519531 C 139.273438 51.847656 139.273438 51.140625 139.273438 50.472656 C 139.15625 50.628906 139.078125 50.667969 139.035156 50.628906 C 138.957031 50.746094 138.957031 50.511719 138.996094 50.234375 C 138.800781 50.472656 138.683594 50.511719 138.996094 50.15625 C 138.996094 50 139.035156 49.882812 139.078125 49.722656 C 139.078125 49.722656 139.078125 49.722656 139.035156 49.722656 C 139.035156 49.722656 139.035156 49.722656 139.078125 49.722656 C 139.117188 49.644531 139.117188 49.527344 139.15625 49.449219 C 138.878906 49.449219 138.957031 49.371094 139.195312 49.332031 C 139.234375 49.132812 139.3125 49.054688 139.3125 49.292969 C 139.390625 49.292969 139.46875 49.25 139.589844 49.25 C 139.589844 49.210938 139.589844 49.210938 139.589844 49.171875 C 139.589844 49.171875 139.589844 49.210938 139.589844 49.210938 C 139.746094 49.171875 139.863281 49.171875 140.019531 49.132812 C 140.179688 48.976562 140.257812 48.9375 140.296875 48.898438 C 140.257812 48.9375 140.179688 49.015625 140.058594 49.132812 C 140.375 49.09375 140.609375 49.09375 140.492188 49.171875 C 140.53125 49.210938 140.492188 49.292969 140.335938 49.410156 C 140.652344 49.410156 140.964844 49.410156 141.28125 49.410156 L 231.046875 49.410156 C 232.226562 49.410156 233.367188 49.371094 234.550781 49.410156 C 234.46875 49.371094 234.429688 49.371094 234.390625 49.332031 C 234.117188 49.171875 234.195312 49.132812 234.390625 49.09375 C 234.273438 49.015625 234.3125 49.015625 234.429688 49.09375 C 234.46875 49.09375 234.550781 49.09375 234.589844 49.09375 C 234.429688 48.976562 234.351562 48.898438 234.3125 48.859375 C 234.3125 48.859375 234.429688 48.9375 234.628906 49.09375 C 234.785156 49.09375 234.941406 49.132812 235.101562 49.132812 C 235.179688 49.132812 235.21875 49.171875 235.296875 49.171875 C 235.296875 49.09375 235.296875 49.054688 235.335938 49.054688 C 235.335938 49.054688 235.375 49.09375 235.375 49.171875 C 235.730469 49.25 235.886719 49.332031 235.375 49.371094 C 235.375 49.449219 235.375 49.488281 235.375 49.566406 C 235.492188 49.605469 235.574219 49.644531 235.613281 49.644531 C 235.574219 49.644531 235.453125 49.644531 235.375 49.605469 L 235.375 49.644531 C 235.414062 49.683594 235.492188 49.722656 235.574219 49.800781 C 235.53125 49.800781 235.492188 49.761719 235.414062 49.722656 C 235.414062 49.800781 235.453125 49.84375 235.453125 49.921875 C 235.574219 50.078125 235.730469 50.234375 235.847656 50.3125 C 235.730469 50.234375 235.613281 50.117188 235.492188 50.039062 C 235.492188 50.195312 235.492188 50.234375 235.492188 50.3125 Z M 235.492188 50.3125 "/></g><g clip-rule="nonzero" clip-path="url(#b14007b904)"><path style=" stroke:none;fill-rule:nonzero;fill:#ffffff;fill-opacity:1;" d="M 361.230469 310.640625 L 361.230469 174.082031 C 359.378906 175.894531 357.375 177.625 355.328125 179.199219 C 353.4375 180.65625 351.46875 181.992188 349.421875 183.253906 C 342.695312 187.34375 335.21875 190.140625 327.386719 191.359375 C 316.839844 192.972656 305.9375 192.34375 295.273438 192.34375 L 219.871094 192.34375 C 219.59375 192.34375 219.320312 192.34375 219.042969 192.304688 L 219.042969 197.183594 C 219.042969 197.773438 219.082031 198.324219 219.042969 198.914062 C 218.886719 202.101562 216.523438 204.464844 213.335938 204.621094 C 207.710938 204.898438 202.003906 204.621094 196.335938 204.621094 L 168.867188 204.621094 C 166.46875 204.621094 164.066406 204.660156 161.664062 204.621094 C 158.085938 204.542969 155.605469 202.140625 155.566406 198.523438 C 155.527344 196.476562 155.527344 194.390625 155.527344 192.34375 C 155.289062 192.382812 155.015625 192.382812 154.777344 192.382812 C 154.621094 192.382812 154.425781 192.382812 154.265625 192.382812 C 143.5625 192.539062 132.820312 192.382812 122.113281 192.382812 L 74.300781 192.382812 C 62.492188 192.382812 50.410156 193.128906 39 189.46875 C 34.238281 187.933594 29.59375 185.851562 25.226562 183.292969 C 23.179688 182.070312 21.210938 180.773438 19.320312 179.355469 C 17.234375 177.78125 15.269531 176.089844 13.417969 174.28125 L 13.417969 323.117188 C 13.417969 324.21875 13.378906 325.320312 13.457031 326.421875 C 14.246094 336.8125 22.707031 344.839844 33.136719 344.996094 C 35.691406 345.035156 38.210938 344.996094 40.769531 344.996094 L 330.847656 344.996094 C 334.234375 344.996094 337.65625 344.996094 341.042969 344.996094 C 352.53125 344.957031 361.191406 335.90625 361.230469 324.535156 C 361.230469 319.8125 361.230469 315.246094 361.230469 310.640625 Z M 361.230469 310.640625 "/></g><g clip-rule="nonzero" clip-path="url(#516433795c)"><path style=" stroke:none;fill-rule:nonzero;fill:#ffffff;fill-opacity:1;" d="M 361.152344 113.203125 L 361.152344 99.664062 C 360.402344 89.355469 351.980469 81.246094 341.511719 81.089844 C 340.804688 81.089844 340.136719 81.089844 339.429688 81.089844 L 255.054688 81.089844 L 255.054688 51.691406 C 255.054688 45.710938 253.359375 40.042969 249.03125 35.714844 C 244.976562 31.621094 239.507812 29.730469 233.800781 29.691406 C 228.644531 29.691406 223.53125 29.691406 218.375 29.691406 L 143.011719 29.691406 C 142.027344 29.691406 141.042969 29.652344 140.097656 29.691406 C 128.804688 29.929688 119.910156 38.863281 119.636719 50.15625 C 119.398438 60.429688 119.515625 70.777344 119.597656 81.089844 L 37.347656 81.089844 C 36.125 81.089844 34.945312 81.089844 33.726562 81.089844 C 28.453125 81.089844 23.53125 82.898438 19.636719 86.519531 C 15.859375 90.0625 13.851562 94.902344 13.535156 99.980469 L 13.535156 119.066406 C 13.535156 121.820312 13.535156 124.535156 13.535156 127.289062 C 13.535156 128.472656 13.535156 129.613281 13.617188 130.792969 C 13.65625 131.621094 13.734375 132.40625 13.8125 133.234375 C 13.8125 133.351562 13.851562 133.46875 13.851562 133.585938 C 14.046875 134.730469 14.207031 135.871094 14.441406 136.972656 C 15.03125 139.726562 15.898438 142.441406 16.882812 145.078125 C 16.882812 145.117188 16.882812 145.117188 16.921875 145.15625 C 16.921875 145.195312 16.921875 145.195312 16.960938 145.234375 C 17 145.316406 17 145.355469 17.039062 145.433594 C 17.277344 145.984375 17.550781 146.535156 17.828125 147.085938 C 18.339844 148.109375 18.851562 149.09375 19.402344 150.078125 C 19.480469 150.234375 19.558594 150.390625 19.675781 150.507812 C 20.425781 151.769531 21.210938 153.027344 22.078125 154.210938 C 22.429688 154.71875 22.824219 155.152344 23.140625 155.664062 C 23.101562 155.585938 23.0625 155.507812 23.019531 155.429688 C 23.101562 155.546875 23.140625 155.625 23.21875 155.703125 C 23.886719 156.53125 24.59375 157.355469 25.34375 158.144531 C 26.484375 159.363281 27.703125 160.546875 28.964844 161.6875 C 29.476562 162.160156 29.988281 162.589844 30.539062 163.023438 C 30.617188 163.101562 30.734375 163.183594 30.851562 163.261719 C 31.523438 163.695312 31.796875 163.851562 31.835938 163.890625 C 31.796875 163.890625 31.601562 163.734375 31.324219 163.574219 C 32.152344 164.125 32.9375 164.757812 33.765625 165.308594 C 35.96875 166.722656 38.25 167.984375 40.613281 169.085938 C 42.894531 169.792969 41.675781 169.519531 40.925781 169.242188 C 41.007812 169.28125 41.046875 169.28125 41.125 169.320312 C 41.792969 169.558594 42.421875 169.832031 43.09375 170.03125 C 44.351562 170.460938 45.609375 170.855469 46.871094 171.210938 C 48.246094 171.5625 49.625 171.878906 51.042969 172.15625 C 51.511719 172.234375 51.984375 172.3125 52.457031 172.390625 C 52.734375 172.429688 53.007812 172.429688 53.246094 172.46875 C 56.746094 172.785156 60.289062 172.707031 63.792969 172.707031 L 154.898438 172.707031 C 155.171875 172.707031 155.449219 172.707031 155.722656 172.746094 L 155.722656 163.261719 C 155.722656 160.503906 155.328125 157.554688 157.574219 155.507812 C 159.5 153.738281 162.019531 154.011719 164.421875 154.011719 L 212.039062 154.011719 C 212.511719 154.011719 213.023438 154.011719 213.496094 154.011719 C 216.566406 154.167969 218.730469 156.292969 219.121094 159.246094 C 219.160156 159.402344 219.160156 159.5625 219.160156 159.71875 C 219.160156 159.796875 219.160156 159.875 219.160156 159.953125 L 219.160156 172.785156 C 219.4375 172.746094 219.710938 172.746094 219.988281 172.746094 L 220.5 172.746094 C 230.929688 172.546875 241.359375 172.746094 251.746094 172.746094 L 316.601562 172.746094 C 318.292969 172.746094 319.949219 172.667969 321.640625 172.507812 C 321.953125 172.46875 322.308594 172.429688 322.625 172.390625 C 323.015625 172.3125 323.449219 172.273438 323.84375 172.195312 C 325.222656 171.917969 326.636719 171.644531 328.015625 171.25 C 329.390625 170.894531 330.730469 170.460938 332.070312 169.988281 C 332.699219 169.753906 333.289062 169.519531 333.917969 169.28125 C 336.359375 168.140625 338.679688 166.921875 340.921875 165.464844 C 341.671875 164.992188 342.378906 164.519531 343.085938 164.007812 C 343.285156 163.851562 343.914062 163.378906 344.191406 163.183594 C 344.191406 163.183594 344.230469 163.140625 344.230469 163.140625 C 344.269531 163.101562 344.347656 163.0625 344.347656 163.023438 C 344.898438 162.589844 345.410156 162.121094 345.921875 161.6875 C 347.179688 160.585938 348.359375 159.402344 349.542969 158.144531 C 350.289062 157.355469 350.996094 156.570312 351.667969 155.703125 C 351.707031 155.625 351.785156 155.585938 351.824219 155.507812 C 352.140625 154.996094 352.570312 154.484375 352.925781 154.011719 C 353.675781 152.949219 354.382812 151.847656 355.011719 150.746094 C 355.128906 150.511719 355.289062 150.273438 355.40625 150.078125 C 355.996094 149.015625 356.585938 147.953125 357.097656 146.851562 C 357.332031 146.339844 357.609375 145.789062 357.84375 145.277344 C 358.828125 142.679688 359.695312 140.042969 360.285156 137.285156 C 360.480469 136.421875 360.640625 135.515625 360.796875 134.648438 C 360.796875 134.648438 360.796875 134.609375 360.796875 134.609375 C 360.796875 134.609375 360.796875 134.570312 360.796875 134.570312 C 360.796875 134.53125 360.796875 134.492188 360.796875 134.453125 C 360.796875 134.414062 360.796875 134.375 360.835938 134.335938 C 360.875 133.941406 360.953125 133.429688 360.992188 133.117188 C 361.074219 132.40625 361.113281 131.660156 361.152344 130.949219 C 361.191406 129.808594 361.230469 128.667969 361.269531 127.527344 L 361.269531 119.734375 C 361.191406 117.414062 361.152344 115.328125 361.152344 113.203125 Z M 235.492188 50.3125 C 235.492188 50.355469 235.492188 50.394531 235.53125 50.394531 C 235.53125 50.394531 235.53125 50.433594 235.53125 50.433594 C 235.574219 50.628906 235.613281 50.746094 235.53125 50.550781 C 235.492188 50.589844 235.414062 50.511719 235.375 50.433594 C 235.574219 60.664062 235.492188 70.894531 235.414062 81.128906 L 139.273438 81.128906 L 139.273438 52.519531 C 139.273438 51.847656 139.273438 51.140625 139.273438 50.472656 C 139.15625 50.628906 139.078125 50.667969 139.035156 50.628906 C 138.957031 50.746094 138.957031 50.511719 138.996094 50.234375 C 138.800781 50.472656 138.683594 50.511719 138.996094 50.15625 C 138.996094 50 139.035156 49.882812 139.078125 49.722656 C 139.078125 49.722656 139.078125 49.722656 139.035156 49.722656 C 139.035156 49.722656 139.035156 49.722656 139.078125 49.722656 C 139.117188 49.644531 139.117188 49.527344 139.15625 49.449219 C 138.878906 49.449219 138.957031 49.371094 139.195312 49.332031 C 139.234375 49.132812 139.3125 49.054688 139.3125 49.292969 C 139.390625 49.292969 139.46875 49.25 139.589844 49.25 C 139.589844 49.210938 139.589844 49.210938 139.589844 49.171875 C 139.589844 49.171875 139.589844 49.210938 139.589844 49.210938 C 139.746094 49.171875 139.863281 49.171875 140.019531 49.132812 C 140.179688 48.976562 140.257812 48.9375 140.296875 48.898438 C 140.257812 48.9375 140.179688 49.015625 140.058594 49.132812 C 140.375 49.09375 140.609375 49.09375 140.492188 49.171875 C 140.53125 49.210938 140.492188 49.292969 140.335938 49.410156 C 140.652344 49.410156 140.964844 49.410156 141.28125 49.410156 L 231.046875 49.410156 C 232.226562 49.410156 233.367188 49.371094 234.550781 49.410156 C 234.46875 49.371094 234.429688 49.371094 234.390625 49.332031 C 234.117188 49.171875 234.195312 49.132812 234.390625 49.09375 C 234.273438 49.015625 234.3125 49.015625 234.429688 49.09375 C 234.46875 49.09375 234.550781 49.09375 234.589844 49.09375 C 234.429688 48.976562 234.351562 48.898438 234.3125 48.859375 C 234.3125 48.859375 234.429688 48.9375 234.628906 49.09375 C 234.785156 49.09375 234.941406 49.132812 235.101562 49.132812 C 235.179688 49.132812 235.21875 49.171875 235.296875 49.171875 C 235.296875 49.09375 235.296875 49.054688 235.335938 49.054688 C 235.335938 49.054688 235.375 49.09375 235.375 49.171875 C 235.730469 49.25 235.886719 49.332031 235.375 49.371094 C 235.375 49.449219 235.375 49.488281 235.375 49.566406 C 235.492188 49.605469 235.574219 49.644531 235.613281 49.644531 C 235.574219 49.644531 235.453125 49.644531 235.375 49.605469 L 235.375 49.644531 C 235.414062 49.683594 235.492188 49.722656 235.574219 49.800781 C 235.53125 49.800781 235.492188 49.761719 235.414062 49.722656 C 235.414062 49.800781 235.453125 49.84375 235.453125 49.921875 C 235.574219 50.078125 235.730469 50.234375 235.847656 50.3125 C 235.730469 50.234375 235.613281 50.117188 235.492188 50.039062 C 235.492188 50.195312 235.492188 50.234375 235.492188 50.3125 Z M 235.492188 50.3125 "/></g></g></svg>