<svg xmlns="http://www.w3.org/2000/svg" xmlns:xlink="http://www.w3.org/1999/xlink" width="500" zoomAndPan="magnify" viewBox="0 0 375 374.999991" height="500" preserveAspectRatio="xMidYMid meet" version="1.2"><g id="ac7ce401ca"><path style=" stroke:none;fill-rule:evenodd;fill:#ffffff;fill-opacity:1;" d="M 262.105469 40.644531 L 325.675781 70.054688 C 325.945312 70.179688 326.246094 70.136719 326.46875 69.9375 L 329.253906 67.449219 C 332.355469 64.675781 337.078125 64.820312 340.003906 67.773438 L 340.4375 68.207031 C 342.746094 70.535156 343.351562 74.027344 342.09375 76.859375 C 341.933594 77.222656 342.09375 77.652344 342.457031 77.816406 L 352.390625 82.414062 C 355.132812 83.679688 356.332031 86.929688 355.066406 89.671875 C 353.800781 92.417969 350.550781 93.613281 347.804688 92.347656 L 334.195312 86.050781 C 333.910156 85.921875 333.59375 85.976562 333.371094 86.195312 L 284.117188 134.929688 C 284.011719 135.03125 283.949219 135.144531 283.917969 135.285156 L 277.738281 162.203125 C 277.691406 162.40625 277.730469 162.601562 277.84375 162.773438 C 277.964844 162.949219 278.128906 163.054688 278.335938 163.085938 L 295.972656 165.886719 C 300.183594 166.554688 302.832031 170.792969 301.617188 174.90625 C 296.386719 192.59375 287.984375 212.992188 277.320312 227.691406 C 276.152344 229.300781 272.15625 229.746094 269.710938 227.273438 C 268.378906 225.929688 267.808594 224.199219 268.078125 222.328125 L 273.328125 185.8125 C 273.359375 185.601562 273.304688 185.40625 273.167969 185.242188 C 273.03125 185.078125 272.851562 184.988281 272.640625 184.976562 L 258.503906 184.292969 C 258.210938 184.28125 257.953125 184.429688 257.820312 184.691406 L 218.742188 261.246094 C 216.675781 265.292969 213.117188 266.8125 208.898438 264.972656 C 205.53125 263.507812 203.84375 259.761719 204.976562 256.269531 L 245.464844 131.433594 C 245.550781 131.164062 245.484375 130.886719 245.28125 130.6875 L 222.371094 108.199219 C 222.242188 108.070312 222.089844 108.003906 221.90625 107.992188 L 194.109375 106.144531 C 189.238281 105.820312 185.230469 102.148438 185.230469 97.265625 C 185.230469 92.382812 189.226562 88.386719 194.109375 88.386719 L 219.605469 88.386719 C 225.238281 88.386719 230.070312 89.757812 234.867188 92.707031 L 255.535156 105.425781 C 266.671875 112.28125 280.445312 111.054688 290.195312 102.34375 L 316.390625 78.941406 C 316.578125 78.773438 316.664062 78.539062 316.628906 78.289062 C 316.589844 78.035156 316.441406 77.839844 316.210938 77.734375 L 257.511719 50.578125 C 257.214844 50.441406 256.882812 50.507812 256.664062 50.75 C 250.917969 57.066406 241.484375 59.261719 233.347656 55.496094 L 211.476562 45.378906 C 201.453125 40.742188 197.046875 28.746094 201.683594 18.722656 C 206.320312 8.695312 218.316406 4.289062 228.339844 8.925781 L 250.210938 19.046875 C 258.347656 22.808594 262.785156 31.417969 261.6875 39.890625 C 261.644531 40.210938 261.808594 40.507812 262.105469 40.644531 Z M 54.125 301.292969 C 70.675781 291.738281 91.839844 297.410156 101.394531 313.957031 C 110.949219 330.507812 105.277344 351.671875 88.726562 361.226562 C 72.179688 370.78125 51.015625 365.109375 41.460938 348.558594 C 31.90625 332.011719 37.578125 310.847656 54.125 301.292969 Z M 74.339844 305.222656 C 70.574219 321.058594 79.835938 337.097656 95.429688 341.753906 C 95.792969 341.863281 96.175781 341.679688 96.316406 341.328125 C 102.863281 325.15625 92.429688 307.085938 75.152344 304.667969 C 74.777344 304.617188 74.429688 304.855469 74.339844 305.222656 Z M 68.515625 357.296875 C 72.28125 341.460938 63.019531 325.421875 47.421875 320.765625 C 47.058594 320.65625 46.675781 320.839844 46.535156 321.191406 C 39.992188 337.363281 50.421875 355.433594 67.703125 357.851562 C 68.078125 357.902344 68.425781 357.664062 68.515625 357.296875 Z M 96.984375 60.671875 C 106.582031 60.671875 114.359375 68.449219 114.359375 78.046875 C 114.359375 87.644531 106.582031 95.425781 96.984375 95.425781 C 87.386719 95.425781 79.605469 87.644531 79.605469 78.046875 C 79.605469 68.449219 87.386719 60.671875 96.984375 60.671875 Z M 269.351562 66.8125 C 259.359375 66.8125 251.253906 74.917969 251.253906 84.914062 C 251.253906 94.90625 259.355469 103.011719 269.351562 103.011719 C 279.347656 103.011719 287.453125 94.90625 287.453125 84.914062 C 287.453125 74.917969 279.351562 66.8125 269.351562 66.8125 Z M 158.363281 122.820312 C 168.644531 122.820312 176.980469 131.15625 176.980469 141.4375 C 176.980469 151.722656 168.644531 160.054688 158.363281 160.054688 C 148.082031 160.054688 139.75 151.71875 139.75 141.4375 C 139.75 131.15625 148.082031 122.820312 158.363281 122.820312 Z M 60.757812 188.097656 L 60.804688 188.28125 C 61.757812 192.097656 65.359375 194.761719 69.246094 194.152344 L 110.675781 187.628906 C 110.738281 187.617188 110.792969 187.617188 110.859375 187.621094 L 128.269531 189.339844 C 128.609375 189.371094 128.875 189.625 128.921875 189.964844 L 133.445312 223.027344 C 133.472656 223.21875 133.429688 223.394531 133.316406 223.550781 L 108.933594 257.691406 C 102.183594 267.136719 102.777344 278.605469 108.226562 288.855469 L 121.824219 314.445312 C 124.007812 318.550781 129.5625 319.5 133.5 317.035156 L 134.519531 316.398438 C 138.054688 314.183594 138.984375 310 137.894531 305.972656 L 130.046875 276.996094 C 129.976562 276.734375 130.046875 276.472656 130.238281 276.285156 L 151.550781 255.347656 C 151.753906 255.148438 152.035156 255.085938 152.304688 255.179688 C 152.574219 255.273438 152.753906 255.5 152.789062 255.785156 L 164.300781 351.554688 C 164.945312 356.902344 169.480469 360.84375 174.867188 360.84375 L 176.15625 360.84375 C 182.023438 360.84375 183.3125 357.027344 183.203125 351.160156 L 180.992188 233.117188 C 180.992188 233.097656 180.992188 233.082031 180.992188 233.0625 L 183.183594 195.222656 C 183.195312 195.011719 183.285156 194.835938 183.445312 194.703125 L 197.089844 183.316406 C 197.398438 183.058594 197.859375 183.101562 198.117188 183.410156 L 210.75 198.574219 C 213.996094 202.472656 220.367188 200.632812 221.039062 195.601562 C 221.324219 193.457031 221.195312 191.074219 220.484375 188.375 C 218.566406 181.125 215.703125 177.839844 207.179688 163.558594 C 205.480469 160.707031 201.488281 156.011719 197.382812 155.929688 C 197.296875 155.929688 197.226562 155.9375 197.148438 155.964844 C 183.082031 160.40625 179.6875 164.4375 171.570312 166.003906 C 138.855469 172.324219 139.261719 158.535156 120.164062 163.804688 L 66.257812 178.671875 C 62.175781 179.800781 59.730469 183.988281 60.757812 188.097656 Z M 176.238281 66.089844 C 173.632812 61.960938 168.121094 60.714844 163.992188 63.324219 L 111.984375 96.1875 C 102.265625 102.332031 90.621094 102.335938 80.894531 96.199219 L 38.222656 69.285156 C 29.835938 63.988281 18.660156 74.820312 28.738281 84.296875 L 61.480469 115.074219 C 68.632812 121.796875 72.144531 127.558594 71.859375 137.363281 L 71.046875 165.25 C 71.039062 165.492188 71.140625 165.699219 71.328125 165.847656 C 71.515625 165.996094 71.746094 166.039062 71.976562 165.976562 L 112.316406 154.648438 C 112.566406 154.578125 112.746094 154.402344 112.820312 154.152344 L 120.726562 127.035156 C 122.746094 120.117188 127.203125 115.484375 132.824219 110.972656 L 173.476562 78.335938 C 177.285156 75.277344 178.847656 70.214844 176.238281 66.089844 Z M 72.546875 205.089844 C 72.527344 204.691406 72.828125 204.351562 73.226562 204.324219 L 97.703125 202.59375 C 97.945312 202.574219 98.160156 202.667969 98.3125 202.851562 C 98.46875 203.039062 98.523438 203.265625 98.460938 203.5 L 86.195312 252.074219 C 84.636719 258.238281 75.0625 257.445312 74.738281 250.691406 Z M 72.546875 205.089844 "/><path style=" stroke:none;fill-rule:evenodd;fill:#ffffff;fill-opacity:1;" d="M 262.105469 44.914062 L 325.675781 74.320312 C 325.945312 74.449219 326.246094 74.402344 326.46875 74.203125 L 329.253906 71.714844 C 332.355469 68.945312 337.078125 69.085938 340.003906 72.039062 L 340.4375 72.472656 C 342.746094 74.804688 343.351562 78.292969 342.09375 81.125 C 341.933594 81.488281 342.09375 81.917969 342.457031 82.085938 L 352.390625 86.679688 C 355.132812 87.945312 356.332031 91.195312 355.066406 93.941406 C 353.800781 96.683594 350.550781 97.882812 347.804688 96.617188 L 334.195312 90.320312 C 333.910156 90.1875 333.59375 90.242188 333.371094 90.460938 L 284.117188 139.195312 C 284.011719 139.296875 283.949219 139.410156 283.917969 139.550781 L 277.738281 166.46875 C 277.691406 166.671875 277.730469 166.867188 277.84375 167.042969 C 277.964844 167.214844 278.128906 167.320312 278.335938 167.355469 L 295.972656 170.152344 C 300.183594 170.820312 302.832031 175.058594 301.617188 179.171875 C 296.386719 196.859375 287.984375 217.261719 277.320312 231.957031 C 276.152344 233.566406 272.15625 234.011719 269.710938 231.542969 C 268.378906 230.195312 267.808594 228.46875 268.078125 226.59375 L 273.328125 190.078125 C 273.359375 189.867188 273.304688 189.675781 273.167969 189.511719 C 273.03125 189.347656 272.851562 189.257812 272.640625 189.246094 L 258.503906 188.5625 C 258.210938 188.546875 257.953125 188.699219 257.820312 188.960938 L 218.742188 265.511719 C 216.675781 269.5625 213.117188 271.078125 208.898438 269.238281 C 205.53125 267.773438 203.84375 264.027344 204.976562 260.535156 L 245.464844 135.699219 C 245.550781 135.429688 245.484375 135.152344 245.28125 134.953125 L 222.371094 112.464844 C 222.242188 112.339844 222.089844 112.269531 221.90625 112.257812 L 194.109375 110.410156 C 189.238281 110.089844 185.230469 106.417969 185.230469 101.535156 C 185.230469 96.652344 189.226562 92.65625 194.109375 92.65625 L 219.605469 92.65625 C 225.238281 92.65625 230.070312 94.023438 234.867188 96.976562 L 255.535156 109.691406 C 266.671875 116.546875 280.445312 115.320312 290.195312 106.609375 L 316.390625 83.207031 C 316.578125 83.039062 316.664062 82.804688 316.628906 82.554688 C 316.589844 82.304688 316.441406 82.105469 316.210938 82 L 257.511719 54.84375 C 257.214844 54.707031 256.882812 54.773438 256.664062 55.015625 C 250.917969 61.332031 241.484375 63.527344 233.347656 59.765625 L 211.476562 49.644531 C 201.453125 45.007812 197.046875 33.011719 201.683594 22.988281 C 206.320312 12.964844 218.316406 8.554688 228.339844 13.195312 L 250.210938 23.3125 C 258.347656 27.078125 262.785156 35.6875 261.6875 44.15625 C 261.644531 44.476562 261.808594 44.777344 262.105469 44.914062 Z M 54.125 305.5625 C 70.675781 296.003906 91.839844 301.675781 101.394531 318.226562 C 110.949219 334.773438 105.277344 355.9375 88.726562 365.492188 C 72.179688 375.046875 51.015625 369.375 41.460938 352.828125 C 31.90625 336.277344 37.578125 315.113281 54.125 305.5625 Z M 74.339844 309.492188 C 70.574219 325.324219 79.835938 341.363281 95.429688 346.019531 C 95.792969 346.128906 96.175781 345.945312 96.316406 345.59375 C 102.863281 329.421875 92.429688 311.355469 75.152344 308.9375 C 74.777344 308.882812 74.429688 309.121094 74.339844 309.492188 Z M 68.515625 361.5625 C 72.28125 345.726562 63.019531 329.6875 47.421875 325.03125 C 47.058594 324.921875 46.675781 325.105469 46.535156 325.457031 C 39.992188 341.632812 50.421875 359.703125 67.703125 362.117188 C 68.078125 362.167969 68.425781 361.929688 68.515625 361.5625 Z M 96.984375 64.9375 C 106.582031 64.9375 114.359375 72.71875 114.359375 82.316406 C 114.359375 91.914062 106.582031 99.691406 96.984375 99.691406 C 87.386719 99.691406 79.605469 91.914062 79.605469 82.316406 C 79.605469 72.71875 87.386719 64.9375 96.984375 64.9375 Z M 269.351562 71.078125 C 259.359375 71.078125 251.253906 79.183594 251.253906 89.179688 C 251.253906 99.175781 259.355469 107.277344 269.351562 107.277344 C 279.347656 107.277344 287.453125 99.175781 287.453125 89.179688 C 287.453125 79.183594 279.351562 71.078125 269.351562 71.078125 Z M 158.363281 127.089844 C 168.644531 127.089844 176.980469 135.421875 176.980469 145.707031 C 176.980469 155.988281 168.644531 164.320312 158.363281 164.320312 C 148.082031 164.320312 139.75 155.988281 139.75 145.707031 C 139.75 135.425781 148.082031 127.089844 158.363281 127.089844 Z M 60.757812 192.367188 L 60.804688 192.546875 C 61.757812 196.367188 65.359375 199.03125 69.246094 198.417969 L 110.675781 191.894531 C 110.738281 191.886719 110.792969 191.882812 110.859375 191.890625 L 128.269531 193.605469 C 128.609375 193.640625 128.875 193.894531 128.921875 194.234375 L 133.445312 227.292969 C 133.472656 227.488281 133.429688 227.660156 133.316406 227.820312 L 108.933594 261.957031 C 102.183594 271.402344 102.777344 282.871094 108.226562 293.121094 L 121.824219 318.714844 C 124.007812 322.816406 129.5625 323.769531 133.5 321.300781 L 134.519531 320.664062 C 138.054688 318.449219 138.984375 314.269531 137.894531 310.238281 L 130.046875 281.265625 C 129.976562 281.003906 130.046875 280.742188 130.238281 280.550781 L 151.550781 259.617188 C 151.753906 259.417969 152.035156 259.355469 152.304688 259.449219 C 152.574219 259.542969 152.753906 259.765625 152.789062 260.050781 L 164.300781 355.820312 C 164.945312 361.167969 169.480469 365.109375 174.867188 365.109375 L 176.15625 365.109375 C 182.023438 365.109375 183.3125 361.292969 183.203125 355.425781 L 180.992188 237.386719 C 180.992188 237.367188 180.992188 237.351562 180.992188 237.332031 L 183.183594 199.488281 C 183.195312 199.277344 183.285156 199.105469 183.445312 198.96875 L 197.089844 187.585938 C 197.398438 187.328125 197.859375 187.367188 198.117188 187.675781 L 210.75 202.839844 C 213.996094 206.738281 220.367188 204.898438 221.039062 199.871094 C 221.324219 197.726562 221.195312 195.34375 220.484375 192.640625 C 218.566406 185.390625 215.703125 182.105469 207.179688 167.824219 C 205.480469 164.976562 201.488281 160.28125 197.382812 160.195312 C 197.296875 160.195312 197.226562 160.207031 197.148438 160.230469 C 183.082031 164.671875 179.6875 168.707031 171.570312 170.273438 C 138.855469 176.589844 139.261719 162.800781 120.164062 168.070312 L 66.257812 182.9375 C 62.175781 184.066406 59.730469 188.253906 60.757812 192.367188 Z M 176.238281 70.355469 C 173.632812 66.226562 168.121094 64.984375 163.992188 67.59375 L 111.984375 100.457031 C 102.265625 106.597656 90.621094 106.601562 80.894531 100.46875 L 38.222656 73.550781 C 29.835938 68.253906 18.660156 79.089844 28.738281 88.5625 L 61.480469 119.34375 C 68.632812 126.0625 72.144531 131.824219 71.859375 141.632812 L 71.046875 169.519531 C 71.039062 169.757812 71.140625 169.96875 71.328125 170.117188 C 71.515625 170.261719 71.746094 170.308594 71.976562 170.242188 L 112.316406 158.917969 C 112.566406 158.847656 112.746094 158.667969 112.820312 158.417969 L 120.726562 131.304688 C 122.746094 124.386719 127.203125 119.753906 132.824219 115.242188 L 173.476562 82.601562 C 177.285156 79.546875 178.847656 74.484375 176.238281 70.355469 Z M 72.546875 209.355469 C 72.527344 208.960938 72.828125 208.621094 73.226562 208.59375 L 97.703125 206.859375 C 97.945312 206.84375 98.160156 206.933594 98.3125 207.121094 C 98.46875 207.304688 98.523438 207.535156 98.460938 207.769531 L 86.195312 256.34375 C 84.636719 262.503906 75.0625 261.714844 74.738281 254.957031 Z M 72.546875 209.355469 "/></g></svg>