<svg xmlns="http://www.w3.org/2000/svg" xmlns:xlink="http://www.w3.org/1999/xlink" width="500" zoomAndPan="magnify" viewBox="0 0 375 374.999991" height="500" preserveAspectRatio="xMidYMid meet" version="1.2"><defs><clipPath id="19011545f0"><path d="M 4.152344 52 L 370.902344 52 L 370.902344 304 L 4.152344 304 Z M 4.152344 52 "/></clipPath><clipPath id="069d11a6bc"><path d="M 4.152344 52 L 370.902344 52 L 370.902344 304 L 4.152344 304 Z M 4.152344 52 "/></clipPath></defs><g id="8a7082ee50"><g clip-rule="nonzero" clip-path="url(#19011545f0)"><path style=" stroke:none;fill-rule:nonzero;fill:#ffffff;fill-opacity:1;" d="M 187.496094 52.371094 L 4.152344 148.867188 L 187.496094 245.359375 L 293.640625 191.6875 C 293.640625 191.6875 293.640625 240.335938 293.640625 264.65625 C 293.640625 303.257812 332.242188 303.257812 332.242188 303.257812 L 332.242188 283.957031 C 332.242188 283.957031 312.941406 282.855469 312.941406 264.652344 C 312.941406 235.703125 312.941406 180.824219 312.941406 180.824219 L 370.84375 148.867188 Z M 187.496094 52.371094 "/></g><path style=" stroke:none;fill-rule:nonzero;fill:#ffffff;fill-opacity:1;" d="M 100.648438 226.0625 L 100.648438 264.660156 C 100.648438 274.25 106.921875 287.09375 119.945312 293.609375 L 187.496094 322.554688 L 245.394531 293.605469 C 258.421875 287.09375 275.253906 274.199219 274.34375 264.65625 L 274.34375 226.0625 L 187.496094 268.273438 Z M 100.648438 226.0625 "/><g clip-rule="nonzero" clip-path="url(#069d11a6bc)"><path style=" stroke:none;fill-rule:nonzero;fill:#ffffff;fill-opacity:1;" d="M 187.496094 52.371094 L 4.152344 148.867188 L 187.496094 245.359375 L 293.640625 191.6875 C 293.640625 191.6875 293.640625 240.335938 293.640625 264.65625 C 293.640625 303.257812 332.242188 303.257812 332.242188 303.257812 L 332.242188 283.957031 C 332.242188 283.957031 312.941406 282.855469 312.941406 264.652344 C 312.941406 235.703125 312.941406 180.824219 312.941406 180.824219 L 370.84375 148.867188 Z M 187.496094 52.371094 "/></g><path style=" stroke:none;fill-rule:nonzero;fill:#ffffff;fill-opacity:1;" d="M 100.648438 226.0625 L 100.648438 264.660156 C 100.648438 274.25 106.921875 287.09375 119.945312 293.609375 L 187.496094 322.554688 L 245.394531 293.605469 C 258.421875 287.09375 275.253906 274.199219 274.34375 264.65625 L 274.34375 226.0625 L 187.496094 268.273438 Z M 100.648438 226.0625 "/></g></svg>